<svg width="51" height="50" viewBox="0 0 51 50" fill="none" xmlns="http://www.w3.org/2000/svg">
<path d="M48.7134 10.2156L26.2134 0.215637C25.8934 0.0734618 25.5472 0 25.1971 0C24.847 0 24.5008 0.0734618 24.1809 0.215637L1.68086 10.2156C1.63086 10.2381 1.59586 10.2756 1.54586 10.3031C1.47586 10.3381 1.40086 10.3606 1.33586 10.4031C1.28086 10.4406 1.23836 10.4881 1.18586 10.5281C1.00312 10.6639 0.842836 10.8276 0.710864 11.0131C0.660864 11.0831 0.608364 11.1456 0.563364 11.2156C0.488956 11.3478 0.425413 11.4857 0.373364 11.6281C0.350864 11.6956 0.315864 11.7581 0.295864 11.8256C0.233078 12.0452 0.200281 12.2723 0.198364 12.5006V37.5006C0.198364 38.4906 0.778365 39.3831 1.68336 39.7856L24.1834 49.7856C24.5084 49.9306 24.8534 50.0006 25.1984 50.0006C25.5465 49.9917 25.8888 49.91 26.2034 49.7606L26.2134 49.7856L48.7134 39.7856C49.1556 39.5895 49.5314 39.2692 49.795 38.8635C50.0586 38.4579 50.1987 37.9844 50.1984 37.5006V12.5006C50.1987 12.0169 50.0586 11.5434 49.795 11.1377C49.5314 10.7321 49.1556 10.4118 48.7134 10.2156ZM25.1984 5.23814L41.5434 12.5006L25.1984 19.7631L21.9284 18.3106L8.85586 12.5006L25.1984 5.23814ZM27.6984 43.6531V24.1256L45.1984 16.3481V35.8781L27.6984 43.6531Z" fill="#023047"/>
</svg>
