<svg width="440" height="440" viewBox="0 0 440 440" fill="none" xmlns="http://www.w3.org/2000/svg">
<path d="M213.84 373.296L20.504 258.984C14.344 255.552 9.064 249.832 15.048 246.136L209.088 134.288C211.992 132.44 216.392 131.296 219.384 133.056L422.4 250.8C428.56 254.408 429.616 264.352 423.456 267.96L239.36 373.12C231.44 377.696 221.76 377.784 213.84 373.296Z" fill="#FB9C4D"/>
<path d="M177.056 272.008L226.688 253.176L267.784 272.008L221.496 300.168C211.024 293.392 187.176 279.312 177.056 272.008Z" fill="url(#paint0_linear_535_528)"/>
<path d="M247.016 245.608L213.752 258.104C213.752 258.104 212.344 258.984 213.224 261.184C213.752 262.416 216.48 264.176 216.48 264.176L245.168 280.896C246.752 281.6 248.424 282.04 250.096 282.216C252.384 282.304 256.256 280.456 256.256 280.456L282.92 264.968L247.016 245.608Z" fill="#34323D"/>
<path d="M246.576 244.112L214.808 257.136C214.808 257.136 212.52 258.368 213.136 259.952C213.752 261.184 214.72 262.152 215.952 262.856L244.728 279.4C246.312 280.104 247.984 280.544 249.656 280.72C251.944 280.808 255.816 278.96 255.816 278.96L281.16 264.528L246.576 244.112Z" fill="#68E1FD"/>
<path opacity="0.45" d="M246.576 244.112L214.808 257.136C214.808 257.136 212.52 258.368 213.136 259.952C213.752 261.184 214.72 262.152 215.952 262.856L244.728 279.4C246.312 280.104 247.984 280.544 249.656 280.72C251.944 280.808 255.816 278.96 255.816 278.96L281.16 264.528L246.576 244.112Z" fill="#34323D"/>
<path d="M321.728 287.848C322.96 288.376 324.456 288.024 325.248 286.968C325.248 286.968 325.864 286.88 325.864 284.152V157.432C325.776 155.232 324.808 153.12 323.136 151.712C320.32 149.424 313.456 145.816 313.456 145.816L172.656 64.592L171.072 63.8C169.928 63.272 168.608 63.624 167.904 64.592C167.464 65.296 167.288 66.088 167.2 66.88C167.112 68.2 167.2 81.048 167.2 81.048V195.096C167.2 197.296 168.168 199.408 169.752 200.904L321.728 287.848Z" fill="#68E1FD"/>
<path d="M323.312 268.576V159.28C323.312 155.672 322.784 153.648 320.056 152.152L171.512 66.088C170.104 65.208 168.344 66 168.344 67.672L168.696 180.048L323.312 268.576Z" fill="white"/>
<path d="M313.104 160.336V198.088L285.824 182.248L286 144.584L313.104 160.336Z" fill="#FB9C4D"/>
<path d="M278.96 141.504V179.256L251.68 163.416L251.856 125.752L278.96 141.504Z" fill="#68E1FD"/>
<path d="M244.288 121.616V159.368L217.008 143.528L217.184 105.864L244.288 121.616Z" fill="#F78B72"/>
<path d="M208.032 101.024V138.776L180.752 122.936L180.928 85.272L208.032 101.024Z" fill="#8CCC00"/>
<path d="M313.72 207.328L293.04 195.624L259.952 176.88L252.296 172.568C251.68 172.216 250.888 172.392 250.448 173.008C250.008 173.624 250.272 174.416 250.888 174.856L271.656 186.648L304.744 205.392L312.312 209.704C312.928 210.056 313.72 209.792 314.072 209.176C314.512 208.472 314.336 207.768 313.72 207.328Z" fill="#FCB749"/>
<path d="M312.576 217.712L291.808 205.92L258.72 187.176L251.152 182.864C250.536 182.512 249.744 182.776 249.392 183.392C249.04 184.008 249.304 184.8 249.832 185.152L270.6 196.944L303.688 215.688L311.256 220C312.664 220.88 313.984 218.592 312.576 217.712Z" fill="#FCB749"/>
<path d="M311.872 227.656L291.104 215.864L258.016 197.12L250.448 192.808C249.832 192.456 249.04 192.632 248.6 193.248C248.16 193.864 248.424 194.656 249.04 195.096L269.808 206.888L302.896 225.632L310.464 229.944C311.08 230.296 311.872 230.032 312.224 229.416C312.664 228.8 312.4 228.008 311.872 227.656Z" fill="#FCB749"/>
<path d="M229.947 187.812C235.677 186.285 238.627 178.689 236.537 170.846C234.447 163.004 228.108 157.883 222.379 159.41C216.649 160.937 213.699 168.533 215.789 176.375C217.879 184.218 224.218 189.338 229.947 187.812Z" fill="#68E1FD"/>
<path d="M192.913 170.213C198.643 168.686 201.593 161.091 199.503 153.248C197.414 145.405 191.075 140.285 185.345 141.812C179.616 143.338 176.665 150.934 178.755 158.777C180.845 166.62 187.184 171.74 192.913 170.213Z" fill="#FB9C4D"/>
<path d="M311.168 237.776V246.928C311.168 247.984 310.288 248.776 309.232 248.776C308.88 248.776 308.616 248.688 308.352 248.512L299.904 243.848C299.288 243.496 298.936 242.88 298.936 242.176V232.848C298.936 231.792 299.816 231 300.784 231C301.136 231 301.4 231.088 301.752 231.264L310.2 236.104C310.816 236.456 311.168 237.072 311.168 237.776Z" fill="#F78B72"/>
<path d="M294.096 228.36V237.512C294.096 238.568 293.216 239.36 292.16 239.36C291.808 239.36 291.544 239.272 291.28 239.096L282.832 234.432C282.216 234.08 281.864 233.464 281.864 232.76V223.52C281.864 222.464 282.744 221.672 283.8 221.672C284.152 221.672 284.416 221.76 284.768 221.936L293.216 226.776C293.744 227.04 294.096 227.656 294.096 228.36Z" fill="#68E1FD"/>
<path d="M275.44 217.888V227.04C275.44 228.096 274.56 228.976 273.592 228.976C273.24 228.976 272.976 228.888 272.712 228.712L264.264 224.048C263.648 223.696 263.296 223.08 263.296 222.376V213.048C263.296 211.992 264.176 211.2 265.232 211.2C265.584 211.2 265.848 211.288 266.2 211.464L274.648 216.304C275.088 216.568 275.44 217.184 275.44 217.888Z" fill="#8CCC00"/>
<path d="M340.56 267.344L372.064 253.264L389.312 266.112L362.912 281.424C356.488 277.288 346.632 271.744 340.56 267.344Z" fill="url(#paint1_linear_535_528)"/>
<path d="M396.264 241.12C396.264 241.12 398.816 263.032 387.2 267.256C375.584 271.48 369.424 260.48 369.248 241.12" fill="#68E1FD"/>
<path d="M382.8 248.952C390.285 248.952 396.352 245.445 396.352 241.12C396.352 236.794 390.285 233.288 382.8 233.288C375.315 233.288 369.248 236.794 369.248 241.12C369.248 245.445 375.315 248.952 382.8 248.952Z" fill="#34323D"/>
<path d="M379.28 223.784C379.28 223.784 384.56 216.128 382.272 210.848C382.272 210.848 380.336 207.416 377.696 206.888C377.696 206.888 377.96 214.104 375.232 213.224C372.504 212.344 375.232 205.656 375.232 205.656C375.232 205.656 372.416 201.784 369.248 201.96C366.08 202.136 369.248 208.736 367.048 207.68C364.848 206.624 366.872 200.904 364.496 200.2C362.296 199.672 360.008 199.32 357.72 199.144C357.72 199.144 355.432 205.744 357.72 206.712C360.008 207.68 363.44 207.944 361.768 209.44C360.096 210.936 355.52 209.264 355.52 209.264C355.52 209.264 355.256 212.96 356.752 214.632C358.248 216.304 367.488 212.696 365.904 215.864C364.32 219.032 358.16 217.448 358.16 217.448C358.16 217.448 361.24 221.936 364.936 223.96C368.72 225.808 379.28 223.784 379.28 223.784Z" fill="#8CCC00"/>
<path d="M378.048 242.968C378.048 242.968 381.92 239.184 381.128 235.928C381.128 235.928 380.424 233.816 378.928 233.2C378.928 233.2 378.312 237.336 376.904 236.544C375.496 235.752 377.696 232.232 377.696 232.232C377.696 232.232 376.464 229.768 374.704 229.504C372.944 229.24 374 233.376 372.856 232.496C371.712 231.616 373.472 228.624 372.152 228.008C370.92 227.48 369.688 227.04 368.456 226.688C368.456 226.688 366.432 230.208 367.664 231C368.896 231.792 370.744 232.32 369.688 232.936C368.632 233.552 366.168 232.144 366.168 232.144C366.168 232.144 365.64 234.256 366.344 235.312C367.048 236.368 372.68 235.312 371.36 236.984C370.04 238.656 366.784 237.072 366.784 237.072C367.576 238.744 368.632 240.24 369.952 241.472C371.888 242.968 378.048 242.968 378.048 242.968Z" fill="#8CCC00"/>
<path d="M392.128 234.784C392.128 234.784 401.456 235.136 404.624 230.384C404.624 230.384 406.472 226.952 405.504 224.4C405.504 224.4 399.52 228.536 398.816 225.72C398.112 222.904 405.24 221.672 405.24 221.672C405.24 221.672 407 217.184 405.152 214.632C403.304 212.08 399.432 218.24 399.168 215.864C398.904 213.488 404.8 212.08 404.096 209.704C403.304 207.592 402.424 205.48 401.368 203.456C401.368 203.456 394.504 205.04 395.032 207.504C395.56 209.968 396.968 212.96 394.944 212.432C392.92 211.904 391.776 207.064 391.776 207.064C391.776 207.064 388.52 208.824 387.992 211.024C387.464 213.224 395.384 219.032 391.864 219.384C388.344 219.736 386.408 213.752 386.408 213.752C386.408 213.752 384.296 218.768 384.56 222.904C384.824 226.952 392.128 234.784 392.128 234.784Z" fill="#8CCC00"/>
<path d="M359.832 201.96C360.8 202.752 361.768 203.632 362.824 204.512C362.736 203.456 362.56 202.4 362.384 201.344C362.296 200.816 363.176 200.552 363.264 201.08C363.44 202.488 363.616 203.896 363.792 205.304C366.432 207.592 368.984 209.968 371.36 212.52C371.536 210.76 371.624 208.912 371.536 207.152C371.536 206.624 372.416 206.624 372.416 207.152C372.504 209.264 372.416 211.288 372.152 213.4C373.648 215.072 375.144 216.832 376.464 218.592C377.96 216.48 379.016 214.104 379.456 211.552C379.544 211.024 380.424 211.2 380.336 211.816C379.808 214.544 378.752 217.096 377.08 219.296L376.992 219.384C380.864 224.84 383.504 231 383.768 238.128C383.768 238.656 382.888 238.656 382.888 238.128C382.712 231.264 380.16 225.368 376.376 220C372.856 220.968 369.16 221.32 365.464 221.056C364.936 221.056 364.936 220.176 365.464 220.176C368.984 220.44 372.416 220.088 375.848 219.208C374 216.656 371.888 214.28 369.688 212.08H369.6C367.576 212.256 365.464 212.432 363.44 212.52C362.12 212.696 360.8 212.52 359.568 212.08C359.04 211.816 359.48 211.112 360.008 211.288C361.416 211.992 363.44 211.64 364.936 211.552C366.256 211.464 367.576 211.376 368.808 211.2C365.64 208.12 362.296 205.216 359.04 202.488C358.776 202.224 359.392 201.608 359.832 201.96Z" fill="#34323D"/>
<path d="M387.112 219.12C387.024 218.856 387.2 218.592 387.464 218.592C387.728 218.504 387.992 218.68 387.992 218.944C388.96 222.2 390.896 225.016 393.624 227.04C394.592 224.224 395.56 221.496 396.352 218.68C394.24 216.568 392.48 214.104 391.16 211.376C390.896 210.848 391.688 210.408 391.952 210.936C393.096 213.4 394.68 215.688 396.616 217.712C397.496 214.456 398.376 211.2 398.992 207.944C399.08 207.416 399.96 207.592 399.872 208.208C398.904 212.696 397.76 217.184 396.44 221.584C398.112 221.232 399.696 220.704 401.28 220C401.808 219.736 402.248 220.528 401.72 220.792C399.96 221.584 398.112 222.2 396.176 222.552C395.296 225.456 394.24 228.272 393.096 231.176C395.736 231.088 398.288 230.56 400.752 229.504C401.28 229.328 401.72 230.032 401.192 230.296C398.552 231.44 395.648 232.056 392.744 232.144C391.336 235.664 389.752 239.184 388.08 242.528C387.816 243.056 387.112 242.616 387.288 242.088C389.576 237.512 391.6 232.848 393.272 228.096C390.368 225.72 388.168 222.64 387.112 219.12Z" fill="#34323D"/>
<path d="M371.184 230.472C371.976 231.792 372.768 233.2 373.648 234.52C373.912 234.08 374.176 233.728 374.44 233.288C374.704 232.76 375.408 233.2 375.232 233.728C374.968 234.256 374.616 234.872 374.264 235.312C375.144 236.808 376.024 238.216 376.904 239.712C377.168 239.448 377.432 239.096 377.432 238.656C377.52 238.128 378.4 238.128 378.312 238.656C378.224 239.36 377.872 239.976 377.344 240.504C378.488 242.352 379.544 244.2 380.6 245.96C380.688 246.224 380.6 246.4 380.424 246.576C380.248 246.664 379.984 246.576 379.896 246.4L375.584 239.184C374.88 239.184 374.176 239.096 373.472 238.832C372.944 238.656 373.12 237.776 373.736 237.952C374.176 238.128 374.616 238.128 375.056 238.216L370.656 230.824C370.656 230.56 370.832 230.384 371.008 230.296C370.92 230.296 371.096 230.384 371.184 230.472Z" fill="#34323D"/>
<path d="M18.832 256.696L66.176 233.376L101.992 255.112L55.704 280.104C45.232 273.24 28.952 263.912 18.832 256.696Z" fill="url(#paint2_linear_535_528)"/>
<path d="M104.368 194.92V249.92C104.368 249.92 51.48 252.824 51.48 249.92V194.92" fill="#68E1FD"/>
<path d="M77.88 261.536C92.5089 261.536 104.368 256.138 104.368 249.48C104.368 242.822 92.5089 237.424 77.88 237.424C63.2511 237.424 51.392 242.822 51.392 249.48C51.392 256.138 63.2511 261.536 77.88 261.536Z" fill="#68E1FD"/>
<path d="M77.88 206.976C92.5089 206.976 104.368 201.578 104.368 194.92C104.368 188.262 92.5089 182.864 77.88 182.864C63.2511 182.864 51.392 188.262 51.392 194.92C51.392 201.578 63.2511 206.976 77.88 206.976Z" fill="#34323D"/>
<path d="M94.424 204.248L94.248 204.336C93.192 204.688 92.224 205.04 91.168 205.304L98.384 145.024C98.384 145.024 99.88 144.232 102.08 145.728L94.688 204.16L94.424 204.248Z" fill="#F78B72"/>
<path d="M86.152 206.184L83.952 149.6C83.952 149.6 85.272 148.544 87.736 149.688L89.584 205.744C88.44 205.92 87.296 206.096 86.152 206.184Z" fill="#F78B72"/>
<path d="M77.88 206.976L70.576 148.016L55.88 155.76L61.864 205.304C67.056 206.8 72.512 207.416 77.88 206.976Z" fill="#FCB749"/>
<path d="M122.672 298.232L170.016 274.912L205.832 296.648L159.544 321.64C149.072 314.776 132.792 305.448 122.672 298.232Z" fill="url(#paint3_linear_535_528)"/>
<path d="M174.328 277.992C174.328 277.992 181.104 275 182.688 274.912C184.272 274.824 187 275.352 184.624 278.344C184.624 278.344 177.496 283.008 176.616 283.096C175.736 283.184 173.448 282.568 173.36 282.744C173.272 282.92 173.096 284.768 173.096 284.768C173.096 284.768 167.2 287.056 166.936 283.096C166.936 282.568 167.816 275.176 167.816 275.176" fill="#E16C3F"/>
<path d="M166.584 260.568C167.728 252.912 169.928 245.608 170.808 237.864C171.336 233.024 171.776 228.184 172.392 223.256C173.008 218.328 174.768 213.752 176 208.912C176.088 208.648 176 208.472 175.736 208.296L175.912 207.768C176.528 207.24 177.144 206.624 177.76 206.096L186.032 211.64C186.032 211.64 185.944 216.744 185.68 224.048C184.712 228.36 184.008 232.144 182.864 236.192C183.128 236.456 183.216 236.808 183.128 237.16C180.4 249.92 178.464 262.944 177.232 275.968C177.232 276.408 176.88 276.76 176.528 276.936L176.264 278.96C169.048 281.776 167.464 276.936 167.464 276.936C167.464 276.936 167.112 272.8 166.76 267.08C166.584 264.968 166.496 262.768 166.584 260.568Z" fill="#34323D"/>
<path d="M217.712 181.192L217.888 181.28C217.536 180.84 217.624 180.312 218.064 179.96C218.152 179.872 218.24 179.872 218.328 179.784C218.768 179.608 219.12 179.52 219.56 179.432C219.56 179.344 219.648 179.344 219.648 179.344C219.824 179.256 219.912 179.08 220.088 178.992C220.264 178.728 220.528 178.64 220.792 178.64H221.144C221.496 178.552 221.848 178.464 222.2 178.376L223.432 178.112C223.432 178.024 223.52 177.848 223.608 177.76C225.368 175.648 226.952 173.448 228.36 171.16C228.888 170.368 230.296 170.808 229.944 171.864C229.592 173.008 229.152 174.064 228.624 175.032C230.472 173.096 231.528 172.744 233.2 170.632C233.904 169.752 235.136 170.984 234.432 171.864C233.992 172.392 232.32 173.712 231.88 174.24C232.76 173.448 234.872 171.864 235.664 171.16C236.456 170.456 237.776 171.688 236.896 172.392C235.576 173.624 234.256 174.856 232.936 176.088C234.168 175.384 235.312 174.592 236.456 173.8C237.336 173.096 238.216 174.68 237.336 175.296C236.016 176.264 234.696 177.144 233.288 177.936C234.168 177.76 235.048 177.496 235.84 177.232C236.896 176.792 237.336 178.464 236.28 178.904C235.4 179.256 234.52 179.52 233.64 179.784C233.2 179.872 232.76 180.048 232.32 180.224C231.792 180.4 231.264 180.576 230.824 180.84C229.152 181.896 227.216 182.688 225.28 183.216L224.928 183.392C224.664 183.568 224.4 183.568 224.136 183.48C221.848 183.92 219.384 183.744 217.184 182.952C216.128 182.512 216.568 180.752 217.712 181.192Z" fill="#FCBF81"/>
<path d="M191.928 167.024C192.28 166.672 192.632 166.32 192.984 166.056V166.144C192.984 166.232 192.984 166.32 193.16 166.32C193.248 166.32 193.248 166.32 193.336 166.32L194.04 165.792C194.04 165.88 193.952 165.968 193.952 166.056C193.864 166.408 194.128 166.76 194.48 166.848C194.832 166.936 195.272 166.672 195.36 166.32V166.232L195.624 166.056C195.624 166.144 195.624 166.232 195.536 166.232C195.536 166.584 195.8 166.848 196.152 166.848C196.24 166.848 196.328 166.848 196.416 166.76C196.504 166.76 196.592 166.672 196.68 166.672C196.768 166.76 196.944 166.848 197.032 166.848C197.648 166.848 198.352 166.848 198.968 166.76C198.88 166.672 198.88 166.496 198.968 166.32C198.968 166.32 198.968 166.32 199.056 166.232C199.936 165.968 200.816 165.704 201.696 165.528H201.784L201.872 165.44C202.224 164.912 202.4 164.296 202.4 163.768C202.928 163.416 203.192 162.888 203.28 162.36C203.192 162.36 203.192 162.272 203.192 162.272C203.104 162.184 203.104 162.008 203.016 161.832C202.928 161.656 202.928 161.392 202.928 161.216C202.928 161.128 203.016 161.04 203.104 160.952C202.928 160.512 202.752 160.072 202.576 159.632C203.632 158.752 204.424 157.52 204.864 156.112C204.952 155.76 204.776 155.408 204.424 155.32C204.248 155.232 203.984 155.32 203.808 155.408C203.368 155.76 203.016 156.112 202.576 156.464C202.488 156.464 202.4 156.552 202.312 156.552C200.288 158.488 198.264 160.336 196.064 162.096C195.712 162.36 191.312 165.352 191.664 165.616C191.752 165.792 187.44 170.456 191.928 167.024Z" fill="#FCBF81"/>
<path d="M192.72 165.792C193.512 165.528 194.304 165.088 194.92 164.56C195.448 164.12 196.24 164.12 196.768 164.648C196.944 164.384 197.032 164.032 197.208 163.68C197.824 162.008 200.376 162.888 199.76 164.56C199.32 165.88 198.528 167.024 197.472 167.904C196.328 168.608 195.096 169.136 193.776 169.4C192.984 169.576 192.28 169.048 192.192 168.256C192.192 168.08 192.192 167.904 192.192 167.728L192.104 167.64C191.752 166.936 192.016 166.144 192.72 165.792Z" fill="#FCBF81"/>
<path d="M196.504 168.256C197.824 167.904 198.968 167.112 199.76 165.968C199.76 166.056 199.848 166.144 199.936 166.056L201.168 165.704C201.432 165.616 201.696 165.528 201.96 165.44C202.488 165.088 202.312 164.472 202.312 163.856V163.768L202.576 163.592C203.016 163.328 203.28 162.888 203.456 162.448C203.544 162.008 203.192 161.568 203.192 161.04C203.456 160.6 203.368 160.072 203.016 159.72C202.576 159.28 202.136 159.632 201.696 159.896C200.728 160.512 199.848 161.216 198.968 161.92C198.792 162.008 199.056 162.272 199.232 162.184C199.672 161.832 200.2 161.392 200.728 161.04C201.168 160.6 201.696 160.248 202.312 159.984C203.72 159.72 202.928 161.216 202.576 161.568C202.4 161.744 202.136 161.92 201.96 162.096L200.552 163.328L200.464 163.416C200.288 165.528 198.792 167.288 196.68 167.728C196.24 167.992 196.24 168.344 196.504 168.256ZM200.64 163.856C200.552 163.856 200.552 163.856 200.464 163.856V163.768C201.344 163.152 202.136 162.448 202.84 161.656C202.928 161.744 202.928 161.92 202.928 162.008C203.016 162.448 202.928 162.8 202.576 163.064C202.312 163.504 201.256 164.472 200.64 163.856ZM199.848 165.792C200.112 165.264 200.376 164.736 200.464 164.12C200.904 164.56 201.52 164.384 202.048 164.032C202.048 164.296 202.048 164.472 202.048 164.736C201.96 165 201.784 165.264 201.432 165.352C200.904 165.528 200.376 165.616 199.848 165.792Z" fill="#34323D"/>
<path d="M176.704 175.296C177.232 174.504 195.008 163.768 196.064 162.36C198.44 165.352 198.704 169.488 196.768 172.744C196.768 172.744 186.824 184.36 181.632 185.416" fill="#8B93FC"/>
<path opacity="0.5" d="M176.704 175.296C177.232 174.504 195.008 163.768 196.064 162.36C198.44 165.352 198.704 169.488 196.768 172.744C196.768 172.744 186.824 184.36 181.632 185.416" fill="#34323D"/>
<path d="M189.024 289.08L193.072 290.488C193.336 291.192 193.952 291.808 194.656 291.984C194.832 292.16 195.008 292.248 195.184 292.336C196.768 292.424 198.44 292.16 199.936 291.544C201.872 290.928 209.352 288.112 207.24 293.48C205.832 294.448 204.336 295.24 202.928 296.12C202.136 296.56 201.344 297.088 200.552 297.528C200.112 297.792 199.672 298.056 199.144 298.144C198.088 298.32 195.448 297.528 195.36 297.792C195.272 298.056 195.008 300.168 195.008 300.168C195.008 300.168 188.144 302.808 187.88 298.232C188.056 297.528 189.024 289.08 189.024 289.08Z" fill="#E16C3F"/>
<path d="M183.392 248.072C182.6 234.608 182.072 221.056 179.256 207.768C179.168 204.336 176.88 206.536 177.056 205.128C178.288 194.04 194.392 207.24 194.392 207.24C195.008 207.768 195.096 211.2 195.272 211.904C195.976 216.128 196.592 220.44 197.12 224.752C199.76 246.4 198.792 267.96 197.736 289.608C194.304 293.128 192.104 294.184 186.56 291.896C185.416 277.728 184.448 263.472 183.48 249.216L183.392 248.072Z" fill="#34323D"/>
<path d="M174.24 197.12C173.624 190.432 173.448 183.744 173.8 177.056C173.888 175.296 174.416 170.984 176.176 170.016C180.048 167.816 185.328 169.752 188.584 172.128C192.896 175.296 195.36 204.952 195.448 212.256C189.464 214.632 181.72 215.512 175.648 212.96C175.12 212.784 175.032 205.48 174.944 204.6C174.68 202.136 174.504 199.672 174.24 197.12Z" fill="#8B93FC"/>
<path d="M186.56 187.44C186.912 191.752 189.992 195.36 194.128 196.504C194.128 196.944 194.216 199.496 194.304 199.936C189.464 198.792 185.856 192.72 185.416 187.528C185.328 186.736 186.56 186.736 186.56 187.44Z" fill="#34323D"/>
<path d="M186.736 157.344C187.088 157.52 189.024 165.792 186.824 170.28C184.624 174.768 177.584 168.432 176.264 164.472C174.944 160.512 179.608 154 186.736 157.344Z" fill="#FCBF81"/>
<path d="M186.472 158.4C186.208 159.896 185.064 161.04 183.656 161.304C181.28 161.656 179.344 161.92 179.256 162.976C179.168 164.032 183.304 163.592 182.864 165.968C182.6 167.552 182.072 169.048 181.368 170.544C180.928 171.6 174.944 166.848 173.888 160.424C172.832 154 178.64 153.472 178.904 153.472C179.168 153.472 179.96 151.976 182.776 151.888C185.592 151.8 186.12 153.032 186.12 153.032C187.528 152.504 189.112 153.032 189.992 154.176C192.104 156.64 190.784 160.072 187.704 161.04L186.472 158.4Z" fill="#E16C3F"/>
<path d="M188.32 175.472C188.32 175.472 203.544 180.664 208.472 179.696C211.992 178.992 218.856 176.44 222.376 175.12C226.336 177.32 227.568 182.336 226.16 186.56C220.352 188.672 203.192 194.744 197.12 193.072C189.728 191.048 181.456 188.056 181.456 188.056C181.456 188.056 173.536 182.688 188.32 175.472Z" fill="#8B93FC"/>
<defs>
<linearGradient id="paint0_linear_535_528" x1="207.39" y1="286.467" x2="232.408" y2="262.487" gradientUnits="userSpaceOnUse">
<stop stop-color="#FB9C4D"/>
<stop offset="0.98" stop-color="#E16C3F"/>
</linearGradient>
<linearGradient id="paint1_linear_535_528" x1="357.967" y1="271.979" x2="382.396" y2="253.464" gradientUnits="userSpaceOnUse">
<stop stop-color="#FB9C4D"/>
<stop offset="0.98" stop-color="#E16C3F"/>
</linearGradient>
<linearGradient id="paint2_linear_535_528" x1="45.7675" y1="265.626" x2="62.3203" y2="254.591" gradientUnits="userSpaceOnUse">
<stop stop-color="#FB9C4D"/>
<stop offset="0.98" stop-color="#E16C3F"/>
</linearGradient>
<linearGradient id="paint3_linear_535_528" x1="152.482" y1="306.296" x2="194.027" y2="274.801" gradientUnits="userSpaceOnUse">
<stop stop-color="#FB9C4D"/>
<stop offset="0.98" stop-color="#E16C3F"/>
</linearGradient>
</defs>
</svg>
