<svg width="51" height="49" viewBox="0 0 51 49" fill="none" xmlns="http://www.w3.org/2000/svg">
<mask id="mask0_756_25" style="mask-type:luminance" maskUnits="userSpaceOnUse" x="0" y="0" width="51" height="49">
<path d="M50.3179 0H0.317932V48.75H50.3179V0Z" fill="white"/>
</mask>
<g mask="url(#mask0_756_25)">
<path d="M41.4638 0H9.17209C4.28207 0 0.317932 3.96414 0.317932 8.85416V39.8958C0.317932 44.7858 4.28207 48.75 9.17209 48.75H41.4638C46.3538 48.75 50.3179 44.7858 50.3179 39.8958V8.85416C50.3179 3.96414 46.3538 0 41.4638 0Z" fill="#00005B"/>
<path d="M20.4044 29.1667H12.6562L11.0797 34.0732C11.0583 34.1625 11.0064 34.2416 10.9329 34.2966C10.8594 34.3517 10.7689 34.3795 10.6772 34.3751H6.75286C6.5291 34.3751 6.45079 34.2521 6.51807 34.0062L13.2264 14.766C13.2935 14.5648 13.3606 14.368 13.4276 14.1107C13.5155 13.6632 13.5604 13.2083 13.5618 12.7523C13.5573 12.7204 13.5602 12.6879 13.5704 12.6573C13.5806 12.6268 13.5978 12.599 13.6206 12.5762C13.6434 12.5534 13.6711 12.5362 13.7017 12.5261C13.7322 12.5159 13.7648 12.5129 13.7966 12.5175H19.1298C19.2859 12.5175 19.3754 12.5733 19.3981 12.6852L27.0121 34.0397C27.0791 34.2634 27.012 34.3753 26.8109 34.3751H22.4504C22.3755 34.3834 22.3001 34.3642 22.2384 34.321C22.1767 34.2778 22.1328 34.2135 22.115 34.1403L20.4044 29.1667ZM13.8638 25.0298H19.1633C19.0291 24.5827 18.8726 24.0796 18.6937 23.5203C18.5145 22.9617 18.3244 22.3635 18.1235 21.7258C17.9223 21.0886 17.7211 20.4513 17.5198 19.814C17.3186 19.1767 17.1341 18.5618 16.9663 17.9692C16.7987 17.377 16.6477 16.8348 16.5135 16.3424H16.4799C16.2912 17.2483 16.0561 18.1439 15.7756 19.0258C15.4622 20.032 15.1435 21.0607 14.8196 22.1116C14.4953 23.1629 14.1766 24.1356 13.8638 25.0298Z" fill="#9999FF"/>
<path d="M39.3556 27.2571H32.7479C32.8289 27.9109 33.046 28.5405 33.3853 29.1052C33.7604 29.6643 34.2908 30.1016 34.9113 30.363C35.7523 30.7268 36.6618 30.9051 37.578 30.8856C38.3048 30.8717 39.0288 30.7922 39.7414 30.6481C40.3787 30.5621 41.0032 30.3992 41.6014 30.1632C41.713 30.0741 41.7692 30.1297 41.7692 30.3309V33.5174C41.7747 33.6042 41.7573 33.691 41.7188 33.769C41.6804 33.83 41.6289 33.8815 41.5679 33.9198C40.9043 34.2138 40.206 34.4218 39.4898 34.5389C38.5168 34.7217 37.528 34.8059 36.5381 34.7905C34.9501 34.7905 33.6196 34.5445 32.5467 34.0526C31.5323 33.6057 30.6365 32.9281 29.9304 32.0736C29.271 31.2685 28.7804 30.3388 28.4881 29.34C28.1987 28.3541 28.0518 27.3319 28.0521 26.3044C28.049 25.1826 28.2245 24.0673 28.572 23.0006C28.9067 21.9601 29.4359 20.9926 30.1317 20.1496C30.8179 19.3164 31.6761 18.6414 32.6473 18.1706C33.6311 17.69 34.794 17.5175 36.1356 17.5175C37.2483 17.4895 38.3535 17.7071 39.3724 18.1548C40.2292 18.5203 40.9835 19.0899 41.5694 19.8141C42.1189 20.5232 42.539 21.3238 42.8104 22.1788C43.0747 23.0028 43.2105 23.8627 43.2129 24.728C43.2129 25.2201 43.1962 25.6673 43.1626 26.0696C43.1291 26.4721 43.1012 26.7628 43.0787 26.9417C43.0701 27.0157 43.0345 27.0839 42.9789 27.1333C42.9232 27.1828 42.8513 27.2101 42.7769 27.2101C42.6427 27.2101 42.4135 27.2268 42.0893 27.2604C41.7649 27.2939 41.3624 27.3163 40.8818 27.3274C40.4007 27.339 39.8923 27.2571 39.3556 27.2571ZM32.7479 24.2016H37.1419C37.6786 24.2016 38.0755 24.196 38.3326 24.1848C38.5046 24.1676 38.6708 24.1126 38.819 24.0236V23.8223C38.8123 23.56 38.767 23.3001 38.6848 23.0509C38.5039 22.4787 38.1401 21.9816 37.6492 21.6363C37.1584 21.2909 36.5678 21.1162 35.968 21.139C35.4035 21.1049 34.8413 21.2358 34.3499 21.5157C33.8586 21.7957 33.4593 22.2125 33.2008 22.7155C32.971 23.1833 32.8181 23.6851 32.7479 24.2016Z" fill="#9999FF"/>
</g>
</svg>
