<svg width="51" height="41" viewBox="0 0 51 41" fill="none" xmlns="http://www.w3.org/2000/svg">
<path d="M19.6719 22.6205C19.8634 19.1894 21.5359 16.1664 24.0592 14.0236C26.5337 11.9188 29.8643 10.6323 33.4984 10.6323C37.1289 10.6323 40.4596 11.9188 42.9359 14.0236C45.4573 16.1664 47.1299 19.1893 47.3231 22.6169C47.5146 26.1424 46.104 29.4175 43.6295 31.8453C41.1062 34.3148 37.5172 35.8644 33.4984 35.8644C29.4796 35.8644 25.8835 34.3148 23.362 31.8453C20.8857 29.4175 19.4787 26.1424 19.6719 22.6205Z" fill="white"/>
<path d="M26.7469 22.9415C26.8404 21.2662 27.657 19.7902 28.889 18.7439C30.0972 17.7163 31.7235 17.0881 33.4979 17.0881C35.2705 17.0881 36.8967 17.7163 38.1058 18.7439C39.3369 19.7902 40.1536 21.2662 40.2479 22.9398C40.3414 24.6611 39.6527 26.2603 38.4445 27.4456C37.2124 28.6514 35.4601 29.408 33.4979 29.408C31.5356 29.408 29.7798 28.6514 28.5486 27.4456C27.3395 26.2603 26.6525 24.6611 26.7469 22.9415Z" fill="#265787"/>
<path d="M15.9965 26.3268C16.008 26.9824 16.2161 28.2564 16.5283 29.2513C17.1844 31.3572 18.2974 33.3054 19.846 35.0223C21.4352 36.7871 23.3921 38.2046 25.6525 39.211C28.0283 40.268 30.6026 40.8066 33.2765 40.8022C35.946 40.7987 38.5203 40.2494 40.8962 39.1845C43.1565 38.1683 45.1116 36.7446 46.6982 34.9789C48.2459 33.2549 49.3571 31.3032 50.015 29.1973C50.3458 28.1333 50.5548 27.0533 50.6385 25.9698C50.7206 24.9022 50.6862 23.8329 50.5354 22.7644C50.2408 20.6825 49.5238 18.729 48.4197 16.9482C47.4099 15.3119 46.1082 13.8794 44.5605 12.6736L44.564 12.6709L28.9446 0.623021C28.9305 0.61239 28.919 0.60089 28.904 0.591144C27.8793 -0.199114 26.156 -0.196452 25.0289 0.595579C23.8895 1.39647 23.759 2.72093 24.7732 3.55637L24.7688 3.56081L31.2834 8.88264L11.4273 8.90392C11.4176 8.90392 11.4079 8.90392 11.4009 8.90392C9.75967 8.90569 8.18194 9.98742 7.86975 11.3544C7.54874 12.7471 8.66346 13.9024 10.3699 13.9086L10.3673 13.9148L20.4316 13.8953L2.47249 27.7434C2.44956 27.7603 2.42486 27.778 2.4037 27.7948C0.709562 29.098 0.161913 31.265 1.22902 32.6365C2.31199 34.031 4.61464 34.0336 6.32642 32.6445L16.1279 24.5859C16.1279 24.5859 15.985 25.6739 15.9965 26.3268ZM41.1828 29.9698C39.1632 32.0367 36.3358 33.2088 33.2765 33.215C30.2128 33.2203 27.3854 32.0589 25.3658 29.9955C24.379 28.99 23.6541 27.8329 23.2069 26.6006C22.7686 25.3895 22.5984 24.104 22.7113 22.807C22.818 21.5392 23.1937 20.3299 23.7934 19.2357C24.3825 18.1602 25.1939 17.1884 26.1957 16.3662C28.1588 14.7591 30.6581 13.8891 33.2721 13.8855C35.8887 13.882 38.3863 14.744 40.3511 16.3458C41.3512 17.1644 42.1617 18.1328 42.7508 19.2065C43.3531 20.2998 43.7262 21.5046 43.8373 22.776C43.9484 24.0712 43.7782 25.355 43.3399 26.5669C42.8919 27.8028 42.1696 28.9598 41.1828 29.9698Z" fill="#E87D0D"/>
</svg>
