<!--?xml version="1.0" standalone="no"?-->
              <svg id="sw-js-blob-svg" viewBox="0 0 100 100" xmlns="http://www.w3.org/2000/svg" version="1.1">
                    <defs> 
                        <linearGradient id="sw-gradient" x1="0" x2="1" y1="1" y2="0">
                            <stop id="stop1" stop-color="rgba(66, 216, 249, 1)" offset="0%"></stop>
                            <stop id="stop2" stop-color="rgba(2, 48, 71, 1)" offset="100%"></stop>
                        </linearGradient>
                    </defs>
                <path fill="url(#sw-gradient)" d="M21.7,-25.7C27.8,-20.8,32.2,-13.6,32.5,-6.5C32.9,0.6,29.2,7.7,25.6,15.5C21.9,23.3,18.3,31.9,11.8,35.7C5.3,39.5,-4.2,38.5,-11.1,34.3C-18,30.2,-22.4,22.8,-26.8,15.4C-31.3,7.9,-35.8,0.4,-36.1,-7.8C-36.3,-16,-32.4,-24.9,-25.7,-29.8C-18.9,-34.6,-9.5,-35.3,-0.8,-34.3C7.8,-33.4,15.6,-30.6,21.7,-25.7Z" width="100%" height="100%" transform="translate(50 50)" stroke-width="0" style="transition: all 0.3s ease 0s;" stroke="url(#sw-gradient)"></path>
              </svg>