<svg width="50" height="50" viewBox="0 0 50 50" fill="none" xmlns="http://www.w3.org/2000/svg">
<path d="M16.25 36.25V13.1875H27.9375C28.875 13.1875 29.8958 13.4583 31 14C32.1042 14.5208 33.0417 15.3333 33.8125 16.4375C34.6042 17.5208 35 18.8958 35 20.5625C35 22.25 34.5938 23.6875 33.7812 24.875C32.9687 26.0417 31.9792 26.9271 30.8125 27.5312C29.6667 28.1354 28.5833 28.4375 27.5625 28.4375H19.125V24.6875H26C26.6875 24.6875 27.4271 24.3437 28.2188 23.6562C29.0313 22.9687 29.4375 21.9375 29.4375 20.5625C29.4375 19.1458 29.0313 18.1875 28.2188 17.6875C27.4271 17.1875 26.7292 16.9375 26.125 16.9375H21.3125V36.25H16.25ZM30.1875 25.375L35.9375 36.25H30.375L24.75 25.375H30.1875ZM25 50C21.5417 50 18.3021 49.3542 15.2812 48.0625C12.2604 46.7708 9.60417 44.9792 7.3125 42.6875C5.02083 40.3958 3.22917 37.7396 1.9375 34.7188C0.645833 31.6979 0 28.4583 0 25C0 21.5417 0.645833 18.3021 1.9375 15.2812C3.22917 12.2604 5.02083 9.60417 7.3125 7.3125C9.60417 5.02084 12.2604 3.22917 15.2812 1.9375C18.3021 0.645834 21.5417 0 25 0C28.4583 0 31.6979 0.645834 34.7188 1.9375C37.7396 3.22917 40.3958 5.02084 42.6875 7.3125C44.9792 9.60417 46.7708 12.2604 48.0625 15.2812C49.3542 18.3021 50 21.5417 50 25C50 28.4583 49.3542 31.6979 48.0625 34.7188C46.7708 37.7396 44.9792 40.3958 42.6875 42.6875C40.3958 44.9792 37.7396 46.7708 34.7188 48.0625C31.6979 49.3542 28.4583 50 25 50ZM25 44C28.5 44 31.6875 43.1458 34.5625 41.4375C37.4375 39.7292 39.7292 37.4375 41.4375 34.5625C43.1458 31.6875 44 28.5 44 25C44 21.5 43.1458 18.3125 41.4375 15.4375C39.7292 12.5625 37.4375 10.2708 34.5625 8.5625C31.6875 6.85417 28.5 6 25 6C21.5 6 18.3125 6.85417 15.4375 8.5625C12.5625 10.2708 10.2708 12.5625 8.5625 15.4375C6.85417 18.3125 6 21.5 6 25C6 28.5 6.85417 31.6875 8.5625 34.5625C10.2708 37.4375 12.5625 39.7292 15.4375 41.4375C18.3125 43.1458 21.5 44 25 44Z" fill="#023047"/>
</svg>
