<svg width="226" height="160" viewBox="0 0 226 160" fill="none" xmlns="http://www.w3.org/2000/svg">
<g clip-path="url(#clip0_706_141)">
<path d="M19.6354 1.2632H206.365C209.799 1.2632 212.598 4.0616 212.598 7.496V122.612C212.598 126.046 209.799 128.845 206.365 128.845H19.6354C16.201 128.845 13.4026 126.046 13.4026 122.612V7.496C13.4026 4.0616 16.201 1.2632 19.6354 1.2632Z" fill="white"/>
<path d="M206.365 129.29H19.6353C15.9465 129.29 12.9573 126.301 12.9573 122.612V7.496C12.9573 3.8072 15.9465 0.818001 19.6353 0.818001H206.365C210.054 0.818001 213.043 3.8072 213.043 7.496V122.612C213.043 126.301 210.054 129.29 206.365 129.29ZM19.6353 1.7084C16.4553 1.7084 13.8477 4.316 13.8477 7.496V122.612C13.8477 125.792 16.4553 128.4 19.6353 128.4H206.365C209.545 128.4 212.152 125.792 212.152 122.612V7.496C212.152 4.316 209.545 1.7084 206.365 1.7084H19.6353Z" fill="#231F20"/>
<path d="M212.598 109.129H13.4025C13.1481 109.129 12.9573 108.938 12.9573 108.684C12.9573 108.429 13.1481 108.238 13.4025 108.238H212.598C212.852 108.238 213.043 108.429 213.043 108.684C213.043 108.938 212.852 109.129 212.598 109.129Z" fill="#231F20"/>
<path d="M138.44 153.522H87.5601L96.9093 128.845H129.091L138.44 153.522Z" fill="white"/>
<path d="M138.44 153.967H87.5602C87.3058 153.967 87.115 153.776 87.115 153.522C87.115 153.458 87.115 153.394 87.115 153.394L96.5278 128.718C96.5914 128.527 96.7822 128.4 96.9094 128.4H129.027C129.218 128.4 129.345 128.527 129.409 128.718L138.822 153.394C138.885 153.649 138.758 153.903 138.567 153.967C138.567 153.967 138.504 153.967 138.44 153.967ZM88.1962 153.076H137.804L128.773 129.29H97.2274L88.1962 153.076Z" fill="#231F20"/>
<path d="M81.5817 152.059H144.419C146.072 152.059 147.408 153.394 147.408 155.048V155.748C147.408 157.401 146.072 158.737 144.419 158.737H81.5817C79.9281 158.737 78.5925 157.401 78.5925 155.748V155.048C78.5925 153.394 79.9281 152.059 81.5817 152.059Z" fill="white"/>
<path d="M144.418 159.182H81.5816C79.6736 159.182 78.1472 157.656 78.1472 155.748V155.048C78.1472 153.14 79.6736 151.614 81.5816 151.614H144.418C146.326 151.614 147.853 153.14 147.853 155.048V155.748C147.853 157.592 146.326 159.182 144.418 159.182ZM81.5816 152.504C80.1824 152.504 79.0376 153.649 79.0376 155.048V155.748C79.0376 157.147 80.1824 158.292 81.5816 158.292H144.418C145.818 158.292 146.962 157.147 146.962 155.748V155.048C146.962 153.649 145.818 152.504 144.418 152.504H81.5816Z" fill="#231F20"/>
<path d="M92.2666 140.102L130.172 132.724L128.709 128.845H96.5914L92.2666 140.102Z" fill="#231F20"/>
<path d="M92.2665 140.547C92.0121 140.547 91.8213 140.356 91.8213 140.102C91.8213 140.038 91.8213 139.975 91.8213 139.975L96.0825 128.718C96.1461 128.527 96.3369 128.4 96.4641 128.4H128.582C128.773 128.4 128.9 128.527 128.964 128.718L130.426 132.597C130.49 132.852 130.426 133.106 130.172 133.17H130.108L92.2029 140.547H92.2665ZM96.8457 129.29L92.9661 139.53L129.6 132.406L128.391 129.29H96.8457Z" fill="#231F20"/>
<path d="M205.538 7.3052H20.5256V100.861H205.538V7.3052Z" fill="#68E1FD"/>
<path d="M205.538 7.3052H20.5256V100.861H205.538V7.3052Z" fill="#231F20"/>
<path d="M114.081 7.3052H20.5256V100.861H114.081V7.3052Z" fill="#68E1FD"/>
<path d="M132.525 20.9156H121.268C121.014 20.9156 120.823 20.7248 120.823 20.4704C120.823 20.216 121.014 20.0252 121.268 20.0252H132.525C132.78 20.0252 132.97 20.216 132.97 20.4704C132.97 20.7248 132.78 20.9156 132.525 20.9156Z" fill="#68E1FD"/>
<path d="M160.827 20.9156H138.44C138.185 20.9156 137.995 20.7248 137.995 20.4704C137.995 20.216 138.185 20.0252 138.44 20.0252H160.827C161.081 20.0252 161.272 20.216 161.272 20.4704C161.272 20.7248 161.081 20.9156 160.827 20.9156Z" fill="white"/>
<path d="M167.632 29.6288H145.245C144.991 29.6288 144.8 29.438 144.8 29.1836C144.8 28.9292 144.991 28.7384 145.245 28.7384H167.632C167.887 28.7384 168.077 28.9292 168.077 29.1836C168.077 29.438 167.823 29.6288 167.632 29.6288Z" fill="white"/>
<path d="M135.196 29.6288H124.003C123.748 29.6288 123.558 29.438 123.558 29.1836C123.558 28.9292 123.748 28.7384 124.003 28.7384H135.196C135.451 28.7384 135.642 28.9292 135.642 29.1836C135.642 29.438 135.451 29.6288 135.196 29.6288Z" fill="#68E1FD"/>
<path d="M135.578 38.2784H126.547C126.292 38.2784 126.102 38.0876 126.102 37.8332C126.102 37.5788 126.292 37.388 126.547 37.388H135.578C135.832 37.388 136.023 37.5788 136.023 37.8332C136.023 38.0876 135.832 38.2784 135.578 38.2784Z" fill="#68E1FD"/>
<path d="M171.576 38.2784H143.528C143.274 38.2784 143.083 38.0876 143.083 37.8332C143.083 37.5788 143.274 37.388 143.528 37.388H171.576C171.83 37.388 172.021 37.5788 172.021 37.8332C172.021 38.0876 171.83 38.2784 171.576 38.2784Z" fill="white"/>
<path d="M140.475 46.9916H129.218C128.964 46.9916 128.773 46.8008 128.773 46.5464C128.773 46.292 128.964 46.1012 129.218 46.1012H140.475C140.73 46.1012 140.92 46.292 140.92 46.5464C140.92 46.8008 140.73 46.9916 140.475 46.9916Z" fill="#68E1FD"/>
<path d="M177.427 46.9916H144.1C143.846 46.9916 143.655 46.8008 143.655 46.5464C143.655 46.292 143.846 46.1012 144.1 46.1012H177.427C177.681 46.1012 177.872 46.292 177.872 46.5464C177.872 46.8008 177.617 46.9916 177.427 46.9916Z" fill="white"/>
<path d="M137.486 55.6412H126.292C126.038 55.6412 125.847 55.4504 125.847 55.196C125.847 54.9416 126.038 54.7508 126.292 54.7508H137.486C137.74 54.7508 137.931 54.9416 137.931 55.196C137.931 55.4504 137.74 55.6412 137.486 55.6412Z" fill="#68E1FD"/>
<path d="M159.873 55.6412H141.811C141.556 55.6412 141.365 55.4504 141.365 55.196C141.365 54.9416 141.556 54.7508 141.811 54.7508H159.873C160.127 54.7508 160.318 54.9416 160.318 55.196C160.318 55.4504 160.127 55.6412 159.873 55.6412Z" fill="white"/>
<path d="M184.868 55.6412H166.742C166.487 55.6412 166.297 55.4504 166.297 55.196C166.297 54.9416 166.487 54.7508 166.742 54.7508H184.868C185.122 54.7508 185.313 54.9416 185.313 55.196C185.313 55.4504 185.122 55.6412 184.868 55.6412Z" fill="#68E1FD"/>
<path d="M130.108 64.3544H126.229C125.974 64.3544 125.783 64.1636 125.783 63.9092C125.783 63.6548 125.974 63.464 126.229 63.464H130.108C130.363 63.464 130.553 63.6548 130.553 63.9092C130.553 64.1 130.363 64.2908 130.108 64.3544Z" fill="#68E1FD"/>
<path d="M159.873 64.3544H136.723C136.468 64.3544 136.278 64.1636 136.278 63.9092C136.278 63.6548 136.468 63.464 136.723 63.464H159.873C160.128 63.464 160.318 63.6548 160.318 63.9092C160.318 64.1 160.064 64.2908 159.873 64.3544Z" fill="white"/>
<path d="M168.968 64.3544H162.544C162.29 64.3544 162.099 64.1636 162.099 63.9092C162.099 63.6548 162.29 63.464 162.544 63.464H168.968C169.222 63.464 169.413 63.6548 169.413 63.9092C169.413 64.1 169.222 64.2908 168.968 64.3544Z" fill="#68E1FD"/>
<path d="M132.334 73.004H126.292C126.038 73.004 125.847 72.8132 125.847 72.5588C125.847 72.3044 126.038 72.1136 126.292 72.1136H132.334C132.589 72.1136 132.78 72.3044 132.78 72.5588C132.78 72.8132 132.589 73.004 132.334 73.004Z" fill="#68E1FD"/>
<path d="M165.533 73.004H138.058C137.804 73.004 137.613 72.8132 137.613 72.5588C137.613 72.3044 137.804 72.1136 138.058 72.1136H165.533C165.788 72.1136 165.979 72.3044 165.979 72.5588C165.979 72.8132 165.788 73.004 165.533 73.004Z" fill="white"/>
<path d="M179.462 73.004H168.205C167.95 73.004 167.76 72.8132 167.76 72.5588C167.76 72.3044 167.95 72.1136 168.205 72.1136H179.462C179.716 72.1136 179.907 72.3044 179.907 72.5588C179.907 72.8132 179.716 73.004 179.462 73.004Z" fill="#68E1FD"/>
<path d="M129.536 81.6536H123.558C123.303 81.6536 123.112 81.4628 123.112 81.2084C123.112 80.954 123.303 80.7632 123.558 80.7632H129.536C129.79 80.7632 129.981 80.954 129.981 81.2084C129.981 81.4628 129.79 81.6536 129.536 81.6536Z" fill="#68E1FD"/>
<path d="M162.544 81.6536H136.532C136.277 81.6536 136.087 81.4628 136.087 81.2084C136.087 80.954 136.277 80.7632 136.532 80.7632H162.544C162.799 80.7632 162.989 80.954 162.989 81.2084C162.989 81.4628 162.799 81.6536 162.544 81.6536Z" fill="white"/>
<path d="M134.815 90.3668H123.621C123.367 90.3668 123.176 90.176 123.176 89.9216C123.176 89.6672 123.367 89.4764 123.621 89.4764H134.815C135.069 89.4764 135.26 89.6672 135.26 89.9216C135.26 90.176 135.069 90.3668 134.815 90.3668Z" fill="#68E1FD"/>
<path d="M197.143 46.9916H181.942C181.688 46.9916 181.497 46.8008 181.497 46.5464C181.497 46.292 181.688 46.1012 181.942 46.1012H197.143C197.397 46.1012 197.588 46.292 197.588 46.5464C197.588 46.8008 197.333 46.9916 197.143 46.9916Z" fill="#68E1FD"/>
<path d="M174.438 20.9792C169.35 20.9792 166.742 20.9792 166.615 20.9156C166.36 20.852 166.233 20.5976 166.297 20.3432C166.36 20.1524 166.551 20.0252 166.806 20.0252C167.632 20.0888 185.377 20.0252 192.118 20.0252C192.373 20.0252 192.564 20.216 192.564 20.4704C192.564 20.7248 192.373 20.9156 192.118 20.9156C184.614 20.9792 178.699 20.9792 174.438 20.9792Z" fill="#68E1FD"/>
<path d="M176.854 81.6536H165.47C165.215 81.6536 165.025 81.4628 165.025 81.2084C165.025 80.954 165.215 80.7632 165.47 80.7632H176.854C177.109 80.7632 177.299 80.954 177.299 81.2084C177.299 81.4628 177.109 81.6536 176.854 81.6536Z" fill="#68E1FD"/>
<path d="M150.842 90.3668H142.51C142.256 90.3668 142.065 90.176 142.065 89.9216C142.065 89.6672 142.256 89.4764 142.51 89.4764H150.842C151.096 89.4764 151.287 89.6672 151.287 89.9216C151.224 90.176 151.033 90.3668 150.842 90.3668Z" fill="white"/>
<path d="M173.865 90.3668H154.022C153.767 90.3668 153.577 90.176 153.577 89.9216C153.577 89.6672 153.767 89.4764 154.022 89.4764H173.865C174.119 89.4764 174.31 89.6672 174.31 89.9216C174.31 90.176 174.119 90.3668 173.865 90.3668Z" fill="#68E1FD"/>
<path d="M140.284 17.1632H20.5255C20.2711 17.1632 20.0803 16.9724 20.0803 16.718C20.0803 16.4636 20.2711 16.2728 20.5255 16.2728H140.348C140.602 16.2728 140.793 16.4636 140.793 16.718C140.73 16.9724 140.539 17.1632 140.284 17.1632Z" fill="#231F20"/>
<path d="M28.2211 13.9832C29.31 13.9832 30.1927 13.1005 30.1927 12.0116C30.1927 10.9227 29.31 10.04 28.2211 10.04C27.1322 10.04 26.2495 10.9227 26.2495 12.0116C26.2495 13.1005 27.1322 13.9832 28.2211 13.9832Z" fill="white"/>
<path d="M35.9167 13.9832C37.0056 13.9832 37.8883 13.1005 37.8883 12.0116C37.8883 10.9227 37.0056 10.04 35.9167 10.04C34.8278 10.04 33.9451 10.9227 33.9451 12.0116C33.9451 13.1005 34.8278 13.9832 35.9167 13.9832Z" fill="white"/>
<path d="M43.6122 13.9832C44.7011 13.9832 45.5838 13.1005 45.5838 12.0116C45.5838 10.9227 44.7011 10.04 43.6122 10.04C42.5233 10.04 41.6406 10.9227 41.6406 12.0116C41.6406 13.1005 42.5233 13.9832 43.6122 13.9832Z" fill="white"/>
<path d="M105.559 22.442H28.73V54.0512H105.559V22.442Z" fill="white"/>
<path d="M28.7299 54.56C28.6027 54.56 28.4755 54.4964 28.4119 54.4328C28.2211 54.242 28.2211 53.9876 28.4119 53.7968L56.4595 28.6112C56.6503 28.484 56.9047 28.484 57.0319 28.6112L80.6275 50.3624C80.7547 50.5532 80.7547 50.8076 80.5639 50.9984C80.4367 51.1256 80.1823 51.1256 80.0551 50.9984L56.7775 29.5016L29.0479 54.4328C28.9843 54.4964 28.8571 54.56 28.7299 54.56Z" fill="#68E1FD"/>
<path d="M76.0483 47.1188C75.9211 47.1188 75.7939 47.0552 75.7303 46.9916C75.5395 46.8008 75.5395 46.5464 75.7303 46.3556L90.8671 32.3636C91.0579 32.1728 91.3123 32.1728 91.5031 32.3636L105.877 46.4192C106.067 46.61 106.067 46.8644 105.877 47.0552C105.686 47.246 105.431 47.246 105.241 47.0552L91.1215 33.3176L76.3663 47.0552C76.3027 47.0552 76.1755 47.1188 76.0483 47.1188Z" fill="#68E1FD"/>
<path d="M77.5111 36.0524C75.6667 36.0524 74.2039 34.3352 74.2039 32.2364C74.2039 30.1376 75.7303 28.4204 77.5111 28.4204C79.2919 28.4204 80.8183 30.1376 80.8183 32.2364C80.8183 34.3352 79.3555 36.0524 77.5111 36.0524ZM77.5111 29.3108C76.1755 29.3108 75.0307 30.5828 75.0307 32.2364C75.0307 33.89 76.1119 35.162 77.5111 35.162C78.9103 35.162 79.9915 33.89 79.9915 32.2364C79.9915 30.5828 78.8467 29.3108 77.5111 29.3108Z" fill="#68E1FD"/>
<path d="M104.986 60.6656H28.7299C28.4755 60.6656 28.2847 60.4748 28.2847 60.2204C28.2847 59.966 28.4755 59.7752 28.7299 59.7752H104.986C105.241 59.7752 105.431 59.966 105.431 60.2204C105.431 60.4112 105.241 60.6656 104.986 60.6656Z" fill="white"/>
<path d="M104.986 66.8984H28.7299C28.4755 66.8984 28.2847 66.7076 28.2847 66.4532C28.2847 66.1988 28.4755 66.008 28.7299 66.008H104.986C105.241 66.008 105.431 66.1988 105.431 66.4532C105.431 66.644 105.241 66.8984 104.986 66.8984Z" fill="white"/>
<path d="M94.4287 73.0676H28.7299C28.4755 73.0676 28.2847 72.8768 28.2847 72.6224C28.2847 72.368 28.4755 72.1772 28.7299 72.1772H94.3651C94.6195 72.1772 94.8103 72.368 94.8103 72.6224C94.8739 72.8768 94.6831 73.0676 94.4287 73.0676Z" fill="white"/>
<path d="M50.4811 93.2924H28.7299C28.4755 93.2924 28.2847 93.1016 28.2847 92.8472V77.7104C28.2847 77.456 28.4755 77.2652 28.7299 77.2652H50.4811C50.7355 77.2652 50.9263 77.456 50.9263 77.7104V92.9108C50.9263 93.1016 50.7355 93.2924 50.4811 93.2924ZM29.1751 92.402H50.0359V78.092H29.1751V92.402Z" fill="white"/>
<path d="M77.7655 93.2924H56.0143C55.7599 93.2924 55.5691 93.1016 55.5691 92.8472V77.7104C55.5691 77.456 55.7599 77.2652 56.0143 77.2652H77.7655C78.0199 77.2652 78.2107 77.456 78.2107 77.7104V92.9108C78.2107 93.1016 78.0199 93.2924 77.7655 93.2924ZM56.4595 92.402H77.3203V78.092H56.4595V92.402Z" fill="white"/>
<path d="M104.986 93.2924H83.2352C82.9808 93.2924 82.79 93.1016 82.79 92.8472V77.7104C82.79 77.456 82.9808 77.2652 83.2352 77.2652H104.986C105.241 77.2652 105.432 77.456 105.432 77.7104V92.9108C105.432 93.1016 105.241 93.2924 104.986 93.2924ZM83.744 92.402H104.605V78.092H83.744V92.402Z" fill="white"/>
<path d="M224.618 159.182H1.38197C1.12757 159.182 0.936768 158.991 0.936768 158.737C0.936768 158.482 1.12757 158.292 1.38197 158.292H224.618C224.872 158.292 225.063 158.482 225.063 158.737C225.063 158.928 224.872 159.182 224.618 159.182Z" fill="#D1D3D4"/>
<path d="M219.975 71.2868H140.857V120.132H219.975V71.2868Z" fill="white"/>
<path d="M219.975 120.64H140.857C140.602 120.64 140.412 120.45 140.412 120.195V71.3504C140.412 71.096 140.602 70.9052 140.857 70.9052H219.975C220.23 70.9052 220.42 71.096 220.42 71.3504V120.195C220.42 120.45 220.23 120.64 219.975 120.64ZM141.302 119.75H219.53V71.732H141.302V119.75Z" fill="#D1D3D4"/>
<path d="M219.975 80.318H141.366C141.111 80.318 140.92 80.1272 140.92 79.8728C140.92 79.6184 141.111 79.4276 141.366 79.4276H219.975C220.23 79.4276 220.42 79.6184 220.42 79.8728C220.42 80.1272 220.23 80.318 219.975 80.318Z" fill="#D1D3D4"/>
<path d="M152.559 96.7904V94.7552L159.428 89.9216L160.763 92.4656L155.866 95.7728L160.763 99.08L159.428 101.624L152.559 96.7904Z" fill="#68E1FD"/>
<path d="M161.972 95.7728C161.972 91.2572 164.707 88.0772 168.586 88.0772C171.576 88.0136 174.056 90.176 174.501 93.1016L171.576 94.0556C171.194 92.3384 170.113 91.3208 168.586 91.3208C166.488 91.3208 165.152 93.1016 165.152 95.7728C165.152 98.444 166.551 100.225 168.586 100.225C170.176 100.225 171.258 99.1436 171.639 97.172L174.565 97.9988C173.992 101.433 171.639 103.405 168.523 103.405C164.707 103.405 161.972 100.288 161.972 95.7728Z" fill="#68E1FD"/>
<path d="M175.073 98.126L178.063 97.49C178.444 99.5252 179.462 100.352 181.37 100.352C182.833 100.352 183.723 99.8432 183.723 98.9528C183.723 98.0624 183.087 97.6172 180.098 96.854C176.981 96.0272 175.519 94.7552 175.519 92.4656C175.519 89.9216 177.554 88.0772 180.67 88.0772C183.596 88.0772 185.885 89.7944 186.458 92.5292L183.469 93.2924C183.214 91.9568 182.006 91.0028 180.67 91.0664C179.462 91.0664 178.635 91.6388 178.635 92.402C178.635 93.038 179.207 93.4196 182.069 94.1828C185.186 95.0096 186.839 96.4088 186.839 98.8892C186.839 101.624 184.677 103.405 181.37 103.405C177.808 103.405 175.519 101.497 175.073 98.126Z" fill="#68E1FD"/>
<path d="M187.285 98.126L190.274 97.49C190.655 99.5252 191.673 100.352 193.581 100.352C195.044 100.352 195.934 99.8432 195.934 98.9528C195.934 98.0624 195.298 97.6172 192.309 96.854C189.32 96.0908 187.73 94.7552 187.73 92.4656C187.73 89.9216 189.765 88.0772 192.881 88.0772C195.807 88.0772 198.097 89.7944 198.669 92.5292L195.68 93.2924C195.425 91.9568 194.217 91.0028 192.881 91.0664C191.673 91.0664 190.846 91.6388 190.846 92.402C190.846 93.038 191.419 93.4196 194.281 94.1828C197.397 95.0096 199.051 96.4088 199.051 98.8892C199.051 101.624 196.888 103.405 193.581 103.405C190.019 103.405 187.73 101.497 187.285 98.126Z" fill="#68E1FD"/>
<path d="M200.068 99.08L204.966 95.7728L200.068 92.4656L201.404 89.9216L208.273 94.7552V96.7904L201.404 101.624L200.068 99.08Z" fill="#68E1FD"/>
<path d="M35.8533 46.928H6.1521V73.4492H35.8533V46.928Z" fill="white"/>
<path d="M35.8532 73.8944H6.15199C5.89759 73.8944 5.70679 73.7036 5.70679 73.4492V46.928C5.70679 46.6736 5.89759 46.4828 6.15199 46.4828H35.8532C36.1076 46.4828 36.2984 46.6736 36.2984 46.928V73.4492C36.2984 73.7036 36.1076 73.8944 35.8532 73.8944ZM6.59718 73.004H35.408V47.3732H6.59718V73.004Z" fill="#D1D3D4"/>
<path d="M35.8532 50.9348H6.15199C5.89759 50.9348 5.70679 50.744 5.70679 50.4896C5.70679 50.2352 5.89759 50.0444 6.15199 50.0444H35.8532C36.1076 50.0444 36.2984 50.2352 36.2984 50.4896C36.2984 50.744 36.1076 50.9348 35.8532 50.9348Z" fill="#D1D3D4"/>
<path d="M10.4131 62.0012V60.8564L15.6919 57.6764L16.5823 59.1392L12.6391 61.4288L16.5823 63.7184L15.6919 65.1812L10.4131 62.0012Z" fill="#68E1FD"/>
<path d="M17.282 66.3896L23.5784 55.7048L24.7868 56.468L18.554 67.1528L17.282 66.3896Z" fill="#68E1FD"/>
<path d="M25.4863 63.7184L29.4295 61.4288L25.4863 59.1392L26.3767 57.6764L31.6555 60.8564V62.0012L26.3767 65.1812L25.4863 63.7184Z" fill="#68E1FD"/>
</g>
<defs>
<clipPath id="clip0_706_141">
<rect width="226" height="160" fill="white"/>
</clipPath>
</defs>
</svg>
