<svg width="15" height="17" viewBox="0 0 15 17" fill="none" xmlns="http://www.w3.org/2000/svg">
<g clip-path="url(#clip0_639_256)">
<path d="M13.3333 0H5C4.08083 0 3.33333 0.76245 3.33333 1.7V6.8H1.66667C0.7475 6.8 0 7.56245 0 8.5V16.15C0 16.3754 0.0877973 16.5916 0.244078 16.751C0.400358 16.9104 0.61232 17 0.833333 17H14.1667C14.3877 17 14.5996 16.9104 14.7559 16.751C14.9122 16.5916 15 16.3754 15 16.15V1.7C15 0.76245 14.2525 0 13.3333 0ZM1.66667 8.5H6.66667V15.3H1.66667V8.5ZM13.3333 15.3H8.33333V8.5C8.33333 7.56245 7.58583 6.8 6.66667 6.8H5V1.7H13.3333V15.3Z" fill="#42D8F9"/>
<path d="M6.66668 3.40002H8.33334V5.10002H6.66668V3.40002ZM10 3.40002H11.6667V5.10002H10V3.40002ZM10 6.82637H11.6667V8.50002H10V6.82637ZM10 10.2H11.6667V11.9H10V10.2ZM3.33334 10.2009H5.00001V11.9009H3.33334V10.2009Z" fill="#42D8F9"/>
</g>
<defs>
<clipPath id="clip0_639_256">
<rect width="15" height="17" fill="white"/>
</clipPath>
</defs>
</svg>
