<svg width="26" height="24" viewBox="0 0 26 24" fill="none" xmlns="http://www.w3.org/2000/svg">
<g clip-path="url(#clip0_600_355)">
<path d="M22.7368 5.05263H18.9474V2.52632C18.9474 1.13305 17.8143 0 16.4211 0H8.84211C7.44884 0 6.31579 1.13305 6.31579 2.52632V5.05263H2.52632C1.13305 5.05263 0 6.18568 0 7.57895V21.4737C0 22.8669 1.13305 24 2.52632 24H22.7368C24.1301 24 25.2632 22.8669 25.2632 21.4737V7.57895C25.2632 6.18568 24.1301 5.05263 22.7368 5.05263ZM16.4211 2.52632V5.05263H8.84211V2.52632H16.4211ZM7.57895 7.57895H22.7368V11.3684H2.52632V7.57895H7.57895ZM2.52632 21.4737V13.8947H10.1053V16.4211H15.1579V13.8947H22.7368L22.7381 21.4737H2.52632Z" fill="#023047"/>
</g>
<defs>
<clipPath id="clip0_600_355">
<rect width="25.2632" height="24" fill="white"/>
</clipPath>
</defs>
</svg>
