<svg width="34" height="50" viewBox="0 0 34 50" fill="none" xmlns="http://www.w3.org/2000/svg">
<mask id="mask0_692_391" style="mask-type:luminance" maskUnits="userSpaceOnUse" x="0" y="0" width="34" height="50">
<path d="M33.6819 0H0.348633V50H33.6819V0Z" fill="white"/>
</mask>
<g mask="url(#mask0_692_391)">
<path d="M8.68194 50.0002C13.2819 50.0002 17.0153 46.2668 17.0153 41.6668V33.3335H8.68194C4.08196 33.3335 0.348633 37.0668 0.348633 41.6668C0.348633 46.2668 4.08196 50.0002 8.68194 50.0002Z" fill="#0ACF83"/>
<path d="M0.348633 24.9998C0.348633 20.3998 4.08196 16.6665 8.68194 16.6665H17.0153V33.3332H8.68194C4.08196 33.3332 0.348633 29.5998 0.348633 24.9998Z" fill="#A259FF"/>
<path d="M0.348633 8.33331C0.348633 3.73333 4.08196 0 8.68194 0H17.0153V16.6667H8.68194C4.08196 16.6667 0.348633 12.9333 0.348633 8.33331Z" fill="#F24E1E"/>
<path d="M17.0154 0H25.3488C29.9488 0 33.6821 3.73333 33.6821 8.33331C33.6821 12.9333 29.9488 16.6667 25.3488 16.6667H17.0154V0Z" fill="#FF7262"/>
<path d="M33.6821 24.9998C33.6821 29.5998 29.9488 33.3332 25.3488 33.3332C20.7488 33.3332 17.0154 29.5998 17.0154 24.9998C17.0154 20.3998 20.7488 16.6665 25.3488 16.6665C29.9488 16.6665 33.6821 20.3998 33.6821 24.9998Z" fill="#1ABCFE"/>
</g>
</svg>
