<svg width="50" height="50" viewBox="0 0 50 50" fill="none" xmlns="http://www.w3.org/2000/svg">
<path d="M25 0C11.1914 0 0 11.1914 0 25C0 38.8086 11.1914 50 25 50C38.8086 50 50 38.8086 50 25C50 11.1914 38.8086 0 25 0ZM25 5C36.0254 5 45 13.9746 45 25C45 26.1719 44.8828 27.3242 44.6875 28.4375C44.0723 28.3008 43.1641 28.1348 42.1094 28.125C41.3281 28.1152 40.3516 28.2422 39.5312 28.3594C39.8145 27.4902 40 26.5332 40 25.5469C40 23.1445 38.8281 20.9082 36.9531 19.0625C37.4707 17.1387 37.9785 13.8379 36.6406 12.5C32.6855 12.5 30.498 15.3223 30.3906 15.4688C29.1699 15.1758 27.9102 15 26.5625 15C24.834 15 23.1836 15.3125 21.6406 15.7812L22.1094 15.3906C22.1094 15.3906 19.9121 12.3438 15.8594 12.3438C14.4434 13.7695 15.0879 17.3828 15.625 19.2188C13.7109 21.0449 12.5 23.2031 12.5 25.5469C12.5 26.3672 12.6953 27.1484 12.8906 27.8906C12.1973 27.8125 9.69727 27.5781 8.67188 27.5781C7.76367 27.5781 6.35742 27.793 5.23438 28.0469C5.07812 27.0508 5 26.0352 5 25C5 13.9746 13.9746 5 25 5ZM8.67188 28.2031C9.6582 28.2031 12.6562 28.5547 13.0469 28.5938C13.0957 28.7305 13.1445 28.8574 13.2031 28.9844C12.1289 28.8867 10.0488 28.7402 8.67188 28.9062C7.75391 29.0137 6.58203 29.3457 5.54688 29.6094C5.46875 29.2969 5.37109 28.9941 5.3125 28.6719C6.40625 28.4375 7.8418 28.2031 8.67188 28.2031ZM42.1094 28.75C43.1055 28.7598 44.0137 28.9258 44.6094 29.0625C44.5801 29.2285 44.4922 29.3652 44.4531 29.5312C43.8184 29.3848 42.7734 29.1699 41.5625 29.1406C40.9766 29.1309 40.0391 29.1602 39.2188 29.2188C39.2578 29.1406 39.2676 29.0625 39.2969 28.9844C40.1465 28.8672 41.2305 28.7402 42.1094 28.75ZM10.2344 29.4531C11.6406 29.4629 12.959 29.5605 13.5156 29.6094C14.8242 32.0508 17.4707 33.8574 21.5625 34.6094C20.5566 35.166 19.6582 35.9473 18.9844 36.875C18.3984 36.9238 17.7832 36.9531 17.1875 36.9531C15.4492 36.9531 14.3652 35.4004 13.4375 34.0625C12.5 32.7246 11.3477 32.5781 10.7031 32.5C10.0488 32.4219 9.82422 32.793 10.1562 33.0469C12.0605 34.5117 12.7441 36.25 13.5156 37.8125C14.209 39.2188 15.6641 40 17.2656 40H17.5781C17.5293 40.2734 17.5 40.5273 17.5 40.7812V43.5156C11.7285 41.1816 7.33398 36.25 5.70312 30.1562C6.72852 29.9023 7.88086 29.6387 8.75 29.5312C9.15039 29.4824 9.6582 29.4434 10.2344 29.4531ZM41.5625 29.7656C42.6855 29.7949 43.6816 30.0098 44.2969 30.1562C42.9199 35.332 39.5215 39.6387 35 42.2656V40.7812C35 38.6523 33.3203 35.918 30.9375 34.6094C34.8926 33.8867 37.4707 32.1582 38.8281 29.8438C39.7754 29.7754 40.8887 29.7461 41.5625 29.7656ZM26.25 40C26.9336 40 27.5 40.5664 27.5 41.25V44.8438C26.6797 44.9512 25.8496 45 25 45V41.25C25 40.5664 25.5664 40 26.25 40ZM21.25 42.5C21.9336 42.5 22.5 43.0664 22.5 43.75V44.8438C21.6602 44.7363 20.8105 44.5801 20 44.375V43.75C20 43.0664 20.5664 42.5 21.25 42.5ZM31.25 42.5C31.8555 42.5 32.3828 42.9395 32.5 43.5156C31.6895 43.8477 30.8594 44.1504 30 44.375V43.75C30 43.0664 30.5664 42.5 31.25 42.5Z" fill="#001E3D"/>
</svg>
