<svg width="50" height="50" viewBox="0 0 50 50" fill="none" xmlns="http://www.w3.org/2000/svg">
<path fill-rule="evenodd" clip-rule="evenodd" d="M50 25C50 38.8071 38.8071 50 25 50C11.1929 50 0 38.8071 0 25C0 11.1929 11.1929 0 25 0C38.8071 0 50 11.1929 50 25ZM21.2388 20.136C21.2388 20.136 21.109 19.9416 20.9792 19.9416C20.8495 19.9416 20.754 19.9837 20.7208 20.136C20.7191 20.3938 20.7753 20.6534 20.9152 20.9141C21.2635 21.5691 21.8219 22.0989 22.5365 22.5354C23.6388 23.241 25.0556 23.4579 26.6219 23.4433C27.7393 23.4365 29.0219 23.2809 30.3832 23.0539C32.2247 22.6197 33.8832 21.882 35.4416 20.9787C37.1382 19.8843 38.5613 18.4163 39.6568 16.5039C39.7249 16.3712 39.7935 16.2488 39.8622 16.1265C40.2335 15.465 40.6048 14.8036 40.8888 12.4832C40.8888 11.659 40.7399 10.8146 40.3702 9.95395C39.9854 8.8444 39.0489 8.02979 37.841 7.36013C37.841 7.36013 35.4416 6.06294 32.1989 6.06294C28.9562 6.06294 26.427 6.90619 26.427 6.90619C24.2972 7.51237 22.082 8.46237 19.8124 9.62979C18.2764 10.3916 16.7927 11.3511 15.3377 12.4186C12.9635 14.0534 11.268 16.1708 9.89047 18.5146C9.42025 19.4702 9.14328 20.4613 9.11238 21.4978C9.21519 22.9377 9.81856 24.2781 10.9281 25.5186C12.1495 26.9309 13.536 28.1382 15.0787 29.15L17.932 31.1601C18.2847 31.4009 18.6243 31.6527 18.9302 31.9326C18.503 32.1517 18.0273 32.4099 17.4776 32.7169C15.5989 33.5916 13.8467 34.9955 12.1596 36.673C11.6433 37.3231 11.232 38.0309 10.9922 38.8781C10.436 40.8427 10.8124 42.3657 12.1596 43.4174C12.6247 43.6613 13.3545 43.8068 14.2995 43.8714C16.8764 43.8579 18.7776 42.8163 20.2658 41.1478C21.5287 39.7832 22.3304 37.968 22.4708 35.5056C22.5277 34.4768 22.3251 33.4963 21.8684 32.5631C22.6266 32.329 23.4257 32.1905 24.2871 32.1978C27.3938 32.4691 30.2714 33.0169 30.7719 36.4129C30.6922 37.2719 30.2809 38.0416 29.4747 38.618C29.4747 38.618 28.8264 38.9422 29.0208 39.1365C29.2152 39.3309 29.6045 39.1365 29.6045 39.1365C30.7747 38.6933 31.532 37.8506 31.8096 36.5427C32.0551 35.1348 31.4242 33.7798 30.2534 32.4573C29.3186 31.5304 28.15 30.6804 25.2601 30.5118C24.336 30.5163 23.4871 30.5489 22.7955 30.6416C22.0764 30.7552 21.4906 30.8831 20.8959 31.0792C20.3785 30.4561 19.7356 29.8564 18.9691 29.2798L16.0506 27.0101C13.9742 25.3635 12.8393 23.6225 12.9377 21.7573C12.9534 18.9354 15.1124 15.8096 22.341 11.9646C25.6854 10.145 29.0579 9.20339 32.4579 9.11125C35.436 9.20339 37.8646 9.8326 38.1646 12.5483C38.0523 14.8416 36.6961 16.7247 34.6629 18.3848C32.0365 20.4129 29.0146 21.6337 25.454 21.7573C23.6141 21.7124 22.1523 21.2365 21.2388 20.136ZM19.9766 33.3547C19.2372 33.7359 18.5228 34.175 17.8083 34.6142C17.6766 34.6952 17.5448 34.7761 17.4129 34.8568C15.9174 35.9017 14.8517 37.0955 14.1702 38.4236C13.9051 38.9214 13.7708 39.4686 13.7163 40.045C13.7129 41.0315 14.1798 41.3281 14.8837 41.277C16.2691 41.3618 17.5787 40.5152 18.8399 39.0719C19.6714 37.9646 20.2259 36.727 20.2669 35.2455C20.3125 34.496 20.1998 33.8791 19.9766 33.3547Z" fill="#CA669B"/>
</svg>
