<svg width="51" height="48" viewBox="0 0 51 48" fill="none" xmlns="http://www.w3.org/2000/svg">
<g clip-path="url(#clip0_692_219)">
<mask id="mask0_692_219" style="mask-type:luminance" maskUnits="userSpaceOnUse" x="0" y="0" width="50" height="48">
<path d="M49.5487 0H0.317932V48H49.5487V0Z" fill="white"/>
</mask>
<g mask="url(#mask0_692_219)">
<path d="M40.8308 0H9.03587C4.22109 0 0.317932 3.90316 0.317932 8.71794V39.2821C0.317932 44.0968 4.22109 48 9.03587 48H40.8308C45.6455 48 49.5487 44.0968 49.5487 39.2821V8.71794C49.5487 3.90316 45.6455 0 40.8308 0Z" fill="#330000"/>
<path d="M24.1744 28.8059H16.5455L14.9933 33.6276C14.9722 33.7155 14.921 33.7934 14.8486 33.8476C14.7763 33.9019 14.6873 33.9292 14.597 33.9249H10.733C10.5126 33.9249 10.4356 33.8038 10.5018 33.5616L17.1068 14.5388C17.173 14.3407 17.239 14.115 17.3051 13.8618C17.3915 13.4211 17.4357 12.9733 17.4372 12.5243C17.4327 12.4929 17.4356 12.4608 17.4456 12.4308C17.4557 12.4007 17.4725 12.3734 17.495 12.3509C17.5174 12.3285 17.5448 12.3116 17.5748 12.3015C17.605 12.2915 17.6369 12.2886 17.6684 12.2931H22.9193C23.0732 12.2931 23.1613 12.3481 23.1836 12.4582L30.6805 33.5946C30.7465 33.815 30.6804 33.9251 30.4823 33.9249H26.1889C26.1152 33.933 26.041 33.9141 25.9802 33.8715C25.9195 33.829 25.8762 33.7658 25.8587 33.6937L24.1744 28.8059ZM17.7344 24.6447H22.9524C22.8203 24.2045 22.6662 23.7091 22.4901 23.1585C22.3136 22.6084 22.1265 22.0194 21.9287 21.3916C21.7305 20.7642 21.5323 20.1367 21.3341 19.5092C21.136 18.8817 20.9544 18.2762 20.7893 17.6927C20.6241 17.1096 20.4755 16.5758 20.3435 16.091H20.3104C20.1245 16.983 19.893 17.8648 19.6169 18.7331C19.3083 19.7238 18.9945 20.7366 18.6756 21.7714C18.3562 22.8066 18.0424 23.7644 17.7344 24.6447Z" fill="#FF9A00"/>
<path d="M35.1385 15.7937C34.8017 15.8072 34.4658 15.7495 34.1528 15.6243C33.8398 15.4991 33.5567 15.3092 33.3221 15.0671C33.0882 14.8145 32.9065 14.5182 32.7874 14.1952C32.6684 13.8721 32.6144 13.5287 32.6285 13.1847C32.6165 12.8441 32.6765 12.5048 32.8045 12.1889C32.9326 11.8731 33.1258 11.5878 33.3716 11.3518C33.615 11.1181 33.9023 10.9351 34.217 10.8132C34.5316 10.6913 34.8673 10.633 35.2045 10.6417C35.9972 10.6417 36.6192 10.8784 37.0705 11.3518C37.2983 11.5978 37.4754 11.8862 37.5916 12.2008C37.7077 12.5153 37.7607 12.8497 37.7475 13.1847C37.7613 13.53 37.7056 13.8746 37.5836 14.198C37.4616 14.5214 37.2759 14.8169 37.0375 15.0671C36.7883 15.3128 36.4909 15.5042 36.164 15.6292C35.8372 15.7543 35.4881 15.8102 35.1385 15.7937ZM32.8597 33.5945V17.8082C32.8597 17.6101 32.9474 17.511 33.1239 17.511H37.1861C37.3621 17.511 37.4501 17.6101 37.4503 17.8082V33.5945C37.4503 33.8149 37.3622 33.9249 37.1861 33.9248H33.157C32.9588 33.9248 32.8598 33.8147 32.8597 33.5945Z" fill="#FF9A00"/>
</g>
</g>
<defs>
<clipPath id="clip0_692_219">
<rect width="49.8" height="48" fill="white" transform="translate(0.317932)"/>
</clipPath>
</defs>
</svg>
