<svg width="50" height="50" viewBox="0 0 50 50" fill="none" xmlns="http://www.w3.org/2000/svg">
<g clip-path="url(#clip0_732_33)">
<path d="M28.4723 0.436508C24.3828 -0.123233 20.2184 0.33827 16.3508 1.77982C12.4831 3.22138 9.03255 5.59813 6.30709 8.69792C3.9745 11.3844 2.2438 14.5389 1.23125 17.9496C0.218695 21.3603 -0.0522709 24.9481 0.436552 28.4722C1.75104 38.13 9.01294 46.3467 18.5045 48.9236C20.6204 49.5026 22.8039 49.7979 24.9976 49.8016L25.3497 49.7991C26.6036 49.783 27.833 49.4503 28.9239 48.832C30.0148 48.2137 30.9318 47.3298 31.5898 46.2624C32.25 45.2008 32.631 43.9894 32.6974 42.741C32.7637 41.4926 32.5133 40.2477 31.9693 39.122L31.4757 38.0903C31.0961 37.3486 30.9179 36.5203 30.9588 35.6881C30.9997 34.8559 31.2583 34.0491 31.7089 33.3482C32.3535 32.3011 33.3634 31.53 34.5435 31.1842C35.7235 30.8383 36.9899 30.9422 38.0978 31.4757L39.1196 31.9643C40.1414 32.4554 41.2277 32.7059 42.3463 32.7059C44.3038 32.6958 46.1797 31.9203 47.5729 30.5452C48.9661 29.1701 49.766 27.3044 49.8016 25.3472C49.8323 23.0357 49.5376 20.7314 48.9261 18.502C46.3468 9.0129 38.13 1.75099 28.4723 0.436508ZM41.2649 27.4926L40.2431 27.004C35.7094 24.8264 30.1489 26.5129 27.5075 30.7093C25.6771 33.626 25.4911 37.0982 27.0015 40.2381L27.4951 41.2698C27.6801 41.6446 27.7656 42.0607 27.7435 42.4781C27.7213 42.8955 27.5922 43.3002 27.3686 43.6533C27.1507 44.014 26.8437 44.3127 26.4772 44.5207C26.1106 44.7287 25.6968 44.8391 25.2753 44.8413H24.9976C23.2423 44.8364 21.4953 44.6004 19.8016 44.1394C12.2049 42.0784 6.40133 35.5109 5.35223 27.8051C4.5561 21.9643 6.22524 16.3393 10.0472 11.9593C12.2216 9.46485 14.9853 7.5537 18.0868 6.39975C21.1882 5.2458 24.529 4.88569 27.8051 5.35218C35.511 6.40129 42.0784 12.2073 44.1394 19.8016C44.6305 21.6121 44.8661 23.4573 44.8388 25.2753C44.8091 27.2768 42.7431 28.2093 41.2649 27.4926Z" fill="#023047"/>
<path d="M13.8393 34.9206C15.8939 34.9206 17.5595 33.255 17.5595 31.2004C17.5595 29.1458 15.8939 27.4802 13.8393 27.4802C11.7846 27.4802 10.119 29.1458 10.119 31.2004C10.119 33.255 11.7846 34.9206 13.8393 34.9206Z" fill="#023047"/>
<path d="M13.8393 25C15.8939 25 17.5595 23.3344 17.5595 21.2798C17.5595 19.2251 15.8939 17.5595 13.8393 17.5595C11.7846 17.5595 10.119 19.2251 10.119 21.2798C10.119 23.3344 11.7846 25 13.8393 25Z" fill="#023047"/>
<path d="M21.2798 17.5595C23.3344 17.5595 25 15.8939 25 13.8393C25 11.7847 23.3344 10.119 21.2798 10.119C19.2252 10.119 17.5596 11.7847 17.5596 13.8393C17.5596 15.8939 19.2252 17.5595 21.2798 17.5595Z" fill="#023047"/>
<path d="M31.2003 17.5595C33.255 17.5595 34.9206 15.8939 34.9206 13.8393C34.9206 11.7847 33.255 10.119 31.2003 10.119C29.1457 10.119 27.4801 11.7847 27.4801 13.8393C27.4801 15.8939 29.1457 17.5595 31.2003 17.5595Z" fill="#023047"/>
</g>
<defs>
<clipPath id="clip0_732_33">
<rect width="50" height="50" fill="white"/>
</clipPath>
</defs>
</svg>
