<svg width="224" height="206" viewBox="0 0 224 206" fill="none" xmlns="http://www.w3.org/2000/svg">
<g clip-path="url(#clip0_707_212)">
<g opacity="0.03">
<path d="M112 205.196C173.377 205.196 223.133 200.628 223.133 194.993C223.133 189.357 173.377 184.789 112 184.789C50.6232 184.789 0.867432 189.357 0.867432 194.993C0.867432 200.628 50.6232 205.196 112 205.196Z" fill="#000001"/>
</g>
<path d="M203.96 112.359H13.6367V194.222H203.96V112.359Z" fill="#E6E6E6"/>
<path d="M154.725 124.135H25.3853V194.222H154.725V124.135Z" fill="#A5A5A5"/>
<g opacity="0.09">
<path d="M154.73 172.117H116.362V194.218H154.73V172.117Z" fill="#000001"/>
</g>
<path d="M172.524 87.2658L183.878 112.359H162.265L172.524 87.2658Z" fill="#24285B"/>
<g opacity="0.44">
<path d="M172.524 87.2658L183.878 112.359H162.265L172.524 87.2658Z" fill="white"/>
</g>
<path d="M94.3587 106.1L108.571 74.7006C109.267 73.1602 110.803 72.1672 112.496 72.1672H174.575C177.229 72.1672 179.034 74.8538 178.027 77.3083L164.622 110.095C164.065 111.463 162.734 112.354 161.254 112.354H98.3908C95.1707 112.354 93.027 109.027 94.354 106.095L94.3587 106.1Z" fill="#24285B"/>
<path d="M102.706 104.313L114.603 78.0275C115.03 77.081 115.976 76.4731 117.016 76.4731H168.311C169.425 76.4731 170.181 77.6006 169.759 78.6307L158.4 106.41C157.992 107.408 157.022 108.058 155.95 108.058H105.114C103.189 108.058 101.908 106.072 102.701 104.318L102.706 104.313Z" fill="white"/>
<path d="M152.878 79.5355L143.492 102.225H155.486L163.569 79.5355H152.878Z" fill="#E6E6E6"/>
<g opacity="0.51">
<path d="M118.909 79.5355L116.561 84.5885H148.053L149.913 79.5355H118.909Z" fill="#E6E6E6"/>
</g>
<g opacity="0.31">
<path d="M209.556 30.0824H163.569V62.2794H209.556V30.0824Z" fill="#E6E6E6"/>
</g>
<g opacity="0.58">
<path d="M205.375 186.251C205.375 186.251 198.768 184.446 197.33 178.293C197.33 178.293 207.57 176.224 207.862 186.794L205.375 186.251Z" fill="#68E1FD"/>
</g>
<g opacity="0.73">
<path d="M206.187 185.592C206.187 185.592 201.57 178.293 205.635 171.468C205.635 171.468 213.421 176.414 209.96 185.606L206.187 185.592Z" fill="#68E1FD"/>
</g>
<path d="M207.375 185.601C207.375 185.601 209.816 177.894 217.189 176.433C217.189 176.433 218.572 181.439 212.414 185.624L207.375 185.601Z" fill="#68E1FD"/>
<path d="M202.582 185.425L203.923 194.589L212.359 194.626L213.602 185.471L202.582 185.425Z" fill="#24285B"/>
<path d="M89.6585 76.2411C89.6585 76.2411 92.7533 68.4738 94.8738 68.8032C96.9989 69.128 95.31 72.1254 95.31 72.1254C95.31 72.1254 100.59 69.8936 102.279 71.4712C103.968 73.0488 93.6674 78.9926 93.6674 78.9926L89.6538 76.2411H89.6585Z" fill="#F4A28C"/>
<path d="M73.1215 94.4206L88.7908 74.8955L95.5513 79.5355L83.5059 112.359L68.1335 112.424L73.1215 94.4206Z" fill="#68E1FD"/>
<g opacity="0.09">
<path d="M73.1215 94.4206L88.7908 74.8955L95.5513 79.5355L83.5059 112.359L68.1335 112.424L73.1215 94.4206Z" fill="#000001"/>
</g>
<path d="M60.3196 156.082L56.7515 191.09H64.0316L73.1214 154.124L66.1892 151.386L60.3196 156.082Z" fill="#24285B"/>
<path d="M47.8798 157.256H39.7969V185.42H47.8798V157.256Z" fill="#FFD200"/>
<g opacity="0.15">
<path d="M47.8798 157.256H39.7969V185.42H47.8798V157.256Z" fill="#000001"/>
</g>
<path d="M32.2756 136.111C32.2756 136.111 32.6608 145.711 38.0432 149.428C41.5742 151.864 59.4057 153.209 71.2563 153.845C77.0748 154.156 81.4086 159.339 80.6894 165.125L77.4646 191.09H84.8979L91.9043 160.063C93.7092 152.068 89.2548 143.99 81.5339 141.248L64.9227 135.35L32.2849 136.116L32.2756 136.111Z" fill="#24285B"/>
<path d="M63.9806 57.593L62.3752 67.7963L53.2251 68.599L58.5611 52.243L63.9806 57.593Z" fill="#F4A28C"/>
<path d="M62.004 46.5266C65.2056 45.2181 68.6577 47.7933 68.5139 51.2501C68.3608 55.041 67.4096 60.3584 63.2197 59.5186C56.8072 58.2286 58.2085 49.8813 58.2085 49.8813C58.2085 49.8813 59.5726 47.5195 61.9993 46.5266H62.004Z" fill="#F4A28C"/>
<path d="M25.8954 103.492C23.5476 89.8224 29.4079 75.8514 41.1564 68.4738C45.9866 65.4392 51.8006 63.5229 58.6028 64.1493C80.2623 66.1491 88.2199 90.9128 76.8705 109.788C73.887 114.753 71.3906 119.992 69.1402 125.323L64.9132 135.345L31.4634 135.912L25.8954 103.487V103.492Z" fill="#68E1FD"/>
<path d="M57.4615 191.09L56.8119 194.185C56.4732 195.781 57.6935 197.285 59.3268 197.285H65.6975C67.238 197.285 67.8319 195.276 66.5327 194.445C65.0896 193.522 63.3125 192.394 61.2431 191.09H57.4615Z" fill="#68E1FD"/>
<path d="M78.8379 191.09L78.1883 194.185C77.8496 195.781 79.0699 197.285 80.7032 197.285H87.0739C88.6144 197.285 89.2083 195.276 87.9091 194.445C86.4661 193.522 84.689 192.394 82.6195 191.09H78.8379Z" fill="#68E1FD"/>
<path d="M56.8026 77.8002C57.5868 69.1744 67.7948 64.9845 74.3836 70.6035C77.2187 73.021 80.0027 76.2458 82.0303 80.496C88.2897 93.5994 98.2657 102.207 131.906 101.427V109.64C131.906 109.64 82.9955 120.006 65.3959 100.253C57.8931 91.8315 56.2319 84.0085 56.7934 77.8002H56.8026Z" fill="#68E1FD"/>
<g opacity="0.44">
<path d="M56.8026 77.8002C57.5868 69.1744 67.7948 64.9845 74.3836 70.6035C77.2187 73.021 80.0027 76.2458 82.0303 80.496C88.2897 93.5994 98.2657 102.207 131.906 101.427V109.64C131.906 109.64 82.9955 120.006 65.3959 100.253C57.8931 91.8315 56.2319 84.0085 56.7934 77.8002H56.8026Z" fill="white"/>
</g>
<path d="M134.842 94.6487L133.488 95.4305L143.102 112.083L144.456 111.301L134.842 94.6487Z" fill="#FFD200"/>
<path d="M131.915 103.659C131.915 103.659 138.661 99.1581 142.183 102.29C145.705 105.422 131.915 109.64 131.915 109.64V103.659Z" fill="#F4A28C"/>
<g opacity="0.09">
<path d="M60.3105 56.5443L58.6029 64.1493C58.6029 64.1493 39.9919 75.1971 38.9572 92.263C38.9572 92.263 36.0386 123.022 53.7031 135.345L34.113 135.912L26.5266 88.6021C26.5266 88.6021 32.3776 65.6712 54.71 64.0286L57.0485 56.8598L60.3058 56.5397L60.3105 56.5443Z" fill="#000001"/>
</g>
<path d="M55.893 52.3962C55.893 52.3962 54.8722 55.8251 57.5634 57.18C60.2546 58.5349 63.6372 52.3358 63.6372 52.3358C63.6372 52.3358 69.6089 51.3058 72.0774 48.183C73.4276 46.4709 71.5994 44.1462 69.5161 44.7958C68.4582 45.1253 67.159 45.0278 65.7298 43.8632C61.9343 40.773 53.3318 42.977 55.8977 52.3962H55.893Z" fill="#24285B"/>
<path d="M64.0131 52.4147C64.0131 52.4147 63.8275 50.1226 61.772 51.0227C59.7165 51.9229 61.1781 54.8554 62.5886 54.7765C63.9945 54.6976 64.0131 52.4147 64.0131 52.4147Z" fill="#F4A28C"/>
<path d="M24.3875 149.261C24.3875 149.261 63.5723 142.194 67.8735 149.043C72.1748 155.887 68.3608 166.647 51.8841 163.714C35.4075 160.782 15.191 169.607 24.3875 149.265V149.261Z" fill="#FFD200"/>
<path d="M23.6451 135.41C12.1797 133.281 5.11295 121.783 8.48159 110.619C11.8224 99.5525 18.2952 87.7715 30.6701 88.6531C50.9654 90.1008 63.2893 142.769 23.6451 135.41Z" fill="#FFD200"/>
<g opacity="0.09">
<path d="M28.6563 88.6206C28.6563 88.6206 5.5491 115.528 26.5312 131.694L22.2021 135.345C22.2021 135.345 3.38222 129.388 8.69038 109.937C8.69038 109.937 14.7595 88.964 28.6563 88.616V88.6206Z" fill="#000001"/>
</g>
<path d="M34.2057 159.91C33.5283 159.91 32.8416 159.729 32.2198 159.353C15.7339 149.344 24.3133 115.876 25.3433 112.094C25.9001 110.053 28.0067 108.846 30.0483 109.408C32.0899 109.965 33.2917 112.071 32.7349 114.108C30.5216 122.256 26.4013 146.857 36.1963 152.806C38.0059 153.905 38.5813 156.258 37.4816 158.068C36.7624 159.255 35.4957 159.91 34.2057 159.91Z" fill="#FFD200"/>
<g opacity="0.44">
<path d="M34.2057 159.91C33.5283 159.91 32.8416 159.729 32.2198 159.353C15.7339 149.344 24.3133 115.876 25.3433 112.094C25.9001 110.053 28.0067 108.846 30.0483 109.408C32.0899 109.965 33.2917 112.071 32.7349 114.108C30.5216 122.256 26.4013 146.857 36.1963 152.806C38.0059 153.905 38.5813 156.258 37.4816 158.068C36.7624 159.255 35.4957 159.91 34.2057 159.91Z" fill="white"/>
</g>
<path d="M39.7968 185.42L25.385 198.069H63.5722L47.8797 185.42H39.7968Z" fill="#FFD200"/>
<g opacity="0.66">
<path d="M148.767 0.804001H83.9558V46.1832H148.767V0.804001Z" fill="#E6E6E6"/>
</g>
<path d="M101.054 22.6862C105.229 22.6862 108.613 19.3022 108.613 15.1277C108.613 10.9532 105.229 7.56912 101.054 7.56912C96.8797 7.56912 93.4956 10.9532 93.4956 15.1277C93.4956 19.3022 96.8797 22.6862 101.054 22.6862Z" fill="#E6E6E6"/>
<g opacity="0.45">
<path d="M139.177 8.70592H117.879V38.2952H139.177V8.70592Z" fill="#A5A5A5"/>
</g>
<path d="M109.425 28.3749H94.7949V38.2906H109.425V28.3749Z" fill="#A5A5A5"/>
</g>
<defs>
<clipPath id="clip0_707_212">
<rect width="224" height="206" fill="white"/>
</clipPath>
</defs>
</svg>
