<svg width="51" height="49" viewBox="0 0 51 49" fill="none" xmlns="http://www.w3.org/2000/svg">
<mask id="mask0_756_67" style="mask-type:luminance" maskUnits="userSpaceOnUse" x="0" y="0" width="51" height="49">
<path d="M50.3487 0H0.348694V48.75H50.3487V0Z" fill="white"/>
</mask>
<g mask="url(#mask0_756_67)">
<path d="M41.4945 0H9.20285C4.31284 0 0.348694 3.96414 0.348694 8.85416V39.8958C0.348694 44.7858 4.31284 48.75 9.20285 48.75H41.4945C46.3845 48.75 50.3487 44.7858 50.3487 39.8958V8.85416C50.3487 3.96414 46.3845 0 41.4945 0Z" fill="#49021F"/>
<path d="M18.5067 12.7534V34.1194C18.5067 34.3432 18.4061 34.455 18.2049 34.4549H14.1462C13.9671 34.4549 13.8777 34.3431 13.878 34.1194V12.7534C13.878 12.5747 13.9786 12.4852 14.1798 12.485H18.2384C18.2748 12.4798 18.3119 12.4833 18.3469 12.4949C18.3818 12.5065 18.4135 12.5262 18.4395 12.5522C18.4656 12.5783 18.4852 12.6099 18.4969 12.6449C18.5085 12.6798 18.5119 12.7169 18.5067 12.7534Z" fill="#FF3366"/>
<path d="M30.5146 34.7904C28.9708 34.8139 27.4411 34.493 26.0368 33.8512C24.7286 33.2458 23.635 32.2574 22.9008 31.0169C22.1403 29.7539 21.7601 28.1718 21.7603 26.2708C21.7476 24.7313 22.141 23.2158 22.9008 21.8768C23.6832 20.5129 24.8341 19.397 26.2214 18.6568C27.6746 17.8518 29.4299 17.4493 31.4873 17.4493C31.599 17.4493 31.7443 17.4549 31.9233 17.4661C32.1021 17.4776 32.3145 17.4944 32.5607 17.5164V10.9087C32.5607 10.7525 32.6278 10.6739 32.762 10.6739H36.9882C37.0155 10.67 37.0434 10.6725 37.0696 10.6813C37.0958 10.69 37.1195 10.7047 37.1391 10.7242C37.1587 10.7437 37.1733 10.7675 37.1821 10.7937C37.1908 10.8199 37.1933 10.8478 37.1894 10.8751V30.6983C37.1894 31.0788 37.2062 31.4925 37.2397 31.9393C37.2733 32.3868 37.3013 32.7893 37.3236 33.1468C37.3278 33.2164 37.3107 33.2858 37.2748 33.3456C37.2389 33.4055 37.1857 33.4531 37.1223 33.4823C36.032 33.937 34.8964 34.2743 33.7346 34.4885C32.6724 34.6845 31.5948 34.7855 30.5146 34.7904ZM32.5606 30.6312V21.4743C32.3793 21.4252 32.1943 21.3915 32.0072 21.3737C31.7788 21.3507 31.5492 21.3395 31.3196 21.3402C30.5057 21.3321 29.7013 21.5159 28.9717 21.8768C28.2611 22.23 27.6544 22.7617 27.2108 23.4197C26.7522 24.0906 26.5231 24.9739 26.5232 26.0695C26.5068 26.8007 26.6262 27.5285 26.8753 28.2162C27.0781 28.7703 27.3985 29.2737 27.8146 29.692C28.2129 30.0768 28.6951 30.3639 29.2233 30.5306C29.7811 30.7112 30.3643 30.8018 30.9507 30.7989C31.2636 30.7989 31.5542 30.7877 31.8227 30.7654C32.0727 30.7465 32.32 30.7016 32.5606 30.6312Z" fill="#FF3366"/>
</g>
</svg>
