<svg width="50" height="50" viewBox="0 0 50 50" fill="none" xmlns="http://www.w3.org/2000/svg">
<path fill-rule="evenodd" clip-rule="evenodd" d="M0 0H50V50H0V0ZM27.1324 22.9166H22.5981V39.5343C22.5981 40.0245 22.1814 42.0343 20.0735 41.9362C17.9657 41.8382 17.0098 39.4852 17.0098 39.4852L13.2598 41.7892C13.2598 41.7892 15.3432 46.0539 19.5343 46.0539C23.7255 46.0539 27.1324 44.4852 27.1324 39.5343V22.9166ZM44.6814 26.3971C43.1056 23.6563 40.5398 22.5182 37.8677 22.6716C35.1956 22.8249 31.299 23.8273 31.201 29.1176C31.103 34.408 37.5491 36.25 37.5491 36.25C40.2361 37.3802 41.4992 38.0494 41.4216 39.5833C41.131 41.4674 39.8775 41.9608 38.2598 41.9608C36.6422 41.9608 35.0352 41.2347 33.554 39.1176L29.8285 41.2745C31.8213 44.4273 34.1667 46.1029 38.2598 46.0784C42.353 46.0539 46.25 43.9461 46.1275 39.5833C46.005 35.2206 43.8969 34.0713 39.6324 32.0833C36.8216 30.9806 35.9804 30.4902 35.8334 29.1176C35.6863 27.7451 36.6422 26.7157 38.0148 26.7157C39.3873 26.7157 40.3798 27.4514 41.0785 28.75L44.6814 26.3971Z" fill="#FFDF00"/>
</svg>
