<?xml version="1.0" encoding="utf-8"?>
<!-- Generator: Adobe Illustrator 27.6.1, SVG Export Plug-In . SVG Version: 6.00 Build 0)  -->
<svg version="1.1" id="Capa_1" xmlns="http://www.w3.org/2000/svg" xmlns:xlink="http://www.w3.org/1999/xlink" x="0px" y="0px"
	 viewBox="0 0 500 503" style="enable-background:new 0 0 500 503;" xml:space="preserve">
<style type="text/css">
	.st0{fill:url(#SVGID_1_);}
	.st1{fill:url(#SVGID_00000119101130006347176970000013806237358924449181_);}
	.st2{clip-path:url(#SVGID_00000069391921620285523870000017455180663296897687_);}
	.st3{fill:#023047;}
	.st4{fill:#F9F9F9;}
	.st5{fill:url(#SVGID_00000149365846733692934670000016298075852165635748_);}
	.st6{fill:url(#SVGID_00000009590160739223790920000007116983083332722577_);}
</style>
<g>
	<linearGradient id="SVGID_1_" gradientUnits="userSpaceOnUse" x1="345.2048" y1="94.9315" x2="461.3945" y2="211.1211">
		<stop  offset="0" style="stop-color:#35B5D4"/>
		<stop  offset="1" style="stop-color:#0B4861"/>
	</linearGradient>
	<path class="st0" d="M412.6,93.1c14.9,2.7,12.1,8.5,31.2,26.6c19.2,18.2,27.7,27.7,22.3,50.2c-6.1,25.4-62.5,34.7-87.5,26.1
		c-26-9-26.1-21-25.4-38.8c0.5-12.1,6.6-28.3,20.1-44.1C380.9,104.2,397.8,90.4,412.6,93.1z"/>
	
		<linearGradient id="SVGID_00000108274623419766286080000010742045160841834920_" gradientUnits="userSpaceOnUse" x1="-286.582" y1="-198.5753" x2="83.8623" y2="171.869" gradientTransform="matrix(0.4597 0.8881 -0.8881 0.4597 267.7191 365.2879)">
		<stop  offset="0" style="stop-color:#35B5D4"/>
		<stop  offset="1" style="stop-color:#0B4861"/>
	</linearGradient>
	<path style="fill:url(#SVGID_00000108274623419766286080000010742045160841834920_);" d="M380.3,400.7
		c56.8-103.4-37.9-223.5-69.1-255.9s-96.6-54.7-137-37.4c-40,17.1-74,49-95.5,83.9s-48.8,78.2-42.5,140.1
		C51.6,437.6,312.4,528.6,380.3,400.7z"/>
	<g>
		
			<image style="overflow:visible;opacity:0.75;" width="375" height="374" xlink:href="F557F43E.png"  transform="matrix(1 0 0 1 73 63.9633)">
		</image>
		<g>
			<g>
				<defs>
					<rect id="SVGID_00000008140921421462993060000008887558159493367453_" x="88.6" y="69.1" width="344.3" height="343.5"/>
				</defs>
				<clipPath id="SVGID_00000163791745767952910910000014111740612150675108_">
					<use xlink:href="#SVGID_00000008140921421462993060000008887558159493367453_"  style="overflow:visible;"/>
				</clipPath>
			</g>
			<g>
				<defs>
					<rect id="SVGID_00000124161568119007485620000016537281156733141434_" x="88.6" y="69.1" width="344.3" height="343.5"/>
				</defs>
				<clipPath id="SVGID_00000057109369172306960710000004903729902809610677_">
					<use xlink:href="#SVGID_00000124161568119007485620000016537281156733141434_"  style="overflow:visible;"/>
				</clipPath>
				<g style="clip-path:url(#SVGID_00000057109369172306960710000004903729902809610677_);">
					<path class="st3" d="M260.7,69.1c-95.1,0-172.1,76.9-172.1,171.8c0,2.3,0,4.6,0.1,6.9c0.3,8.6,1.3,17,2.9,25.3
						c15.1,79.5,85.1,139.6,169.1,139.6c95.1,0,172.1-76.9,172.1-171.8S355.8,69.1,260.7,69.1z"/>
					<g>
						<path class="st4" d="M408.4,240.9c0,0.3,0,0.5,0,0.8c-0.4,69.6-48.6,128-113.5,143.9c-5.2,1.3-10.5,2.3-15.9,3
							c-6.5,0.9-13.1,1.3-19.9,1.3c-64.2,0-119-40.5-140.1-97.3l51.9,31.1c15.1,16,34.5,27.9,56.3,33.8c10.2,2.8,20.8,4.2,31.9,4.2
							c21.6,0,42-5.7,59.5-15.6c11.5-6.5,21.9-14.9,30.7-24.7c15.1-16.9,25.6-38,29.3-61.3c1-6,1.5-12.2,1.5-18.5h-32.3l-38.2-23
							v-0.2h97.1C407.8,225.8,408.4,233.3,408.4,240.9z"/>
						<path class="st4" d="M145.5,198.8L145.5,198.8l18.8,11.4l109.9,66.3l35.3,21.3l-0.2,0.1h-49.6l-35.4-21.4L139,224.8L114,210.2
							l-0.9-0.5c1.9-8.7,4.5-17.1,7.8-25.2c22.3-54.3,75.8-92.5,138.2-92.5c49,0,92.5,23.6,119.7,59.9h-37.8
							C319.3,132.1,290.6,120,259,120C207,120,162.6,152.8,145.5,198.8z"/>
					</g>
				</g>
			</g>
			<g>
				<defs>
					<rect id="SVGID_00000141447160823136766460000005755986992050609544_" x="88.6" y="69.1" width="344.3" height="343.5"/>
				</defs>
				<clipPath id="SVGID_00000018941384076492699970000008970348956158368650_">
					<use xlink:href="#SVGID_00000141447160823136766460000005755986992050609544_"  style="overflow:visible;"/>
				</clipPath>
			</g>
		</g>
	</g>
	
		<linearGradient id="SVGID_00000090285994346339445080000006558326308706328750_" gradientUnits="userSpaceOnUse" x1="232.0473" y1="13.3161" x2="280.038" y2="61.3067">
		<stop  offset="0" style="stop-color:#35B5D4"/>
		<stop  offset="1" style="stop-color:#0B4861"/>
	</linearGradient>
	<circle style="fill:url(#SVGID_00000090285994346339445080000006558326308706328750_);" cx="257.5" cy="38.8" r="22.5"/>
	
		<linearGradient id="SVGID_00000112605189437072799030000014793620382288222859_" gradientUnits="userSpaceOnUse" x1="426.5466" y1="340.3539" x2="444.566" y2="358.3733">
		<stop  offset="0" style="stop-color:#35B5D4"/>
		<stop  offset="1" style="stop-color:#0B4861"/>
	</linearGradient>
	<circle style="fill:url(#SVGID_00000112605189437072799030000014793620382288222859_);" cx="436.1" cy="349.9" r="8.5"/>
</g>
</svg>
