<svg width="213" height="195" viewBox="0 0 213 195" fill="none" xmlns="http://www.w3.org/2000/svg">
<g clip-path="url(#clip0_701_152)">
<g opacity="0.03">
<path d="M107.48 189.013C165.339 189.013 212.243 178.121 212.243 164.684C212.243 151.248 165.339 140.355 107.48 140.355C49.6212 140.355 2.71729 151.248 2.71729 164.684C2.71729 178.121 49.6212 189.013 107.48 189.013Z" fill="#000001"/>
</g>
<path d="M158.717 157.31H109.509H104.329H55.1215L43.1082 189.013H104.329H109.509H170.73L158.717 157.31Z" fill="#E6E6E6"/>
<path d="M128.992 162.596H102.987H99.0529H59.3534L52.5796 183.728H99.0529H102.987H136.609L128.992 162.596Z" fill="#A5A5A5"/>
<path opacity="0.42" d="M134.291 162.596L142.54 183.728H162.861L154.191 162.596H134.291Z" fill="#A5A5A5"/>
<path d="M43.1082 189.013L47.5004 194.907H165.573L170.73 189.013H43.1082Z" fill="#A5A5A5"/>
<path opacity="0.58" d="M15.0923 149.185C15.0923 149.185 3.32169 145.97 0.761475 135.019C0.761475 135.019 18.999 131.332 19.5166 150.156L15.0923 149.19V149.185Z" fill="#68E1FD"/>
<path opacity="0.73" d="M16.5304 148.022C16.5304 148.022 8.30934 135.024 15.5457 122.869C15.5457 122.869 29.4094 131.676 23.2493 148.049L16.5304 148.022Z" fill="#68E1FD"/>
<path d="M18.6509 148.027C18.6509 148.027 22.9973 134.3 36.1282 131.699C36.1282 131.699 38.5922 140.612 27.6231 148.063L18.6509 148.027Z" fill="#68E1FD"/>
<path d="M10.1184 147.72L12.5 164.043L27.527 164.107L29.7437 147.802L10.1184 147.72Z" fill="#24285B"/>
<path d="M93.6486 104.04L87.7175 141.692H127.248L118.156 104.04H93.6486Z" fill="#A5A5A5"/>
<path d="M134.292 135.093H78.6995V147.193H134.292V135.093Z" fill="#E6E6E6"/>
<path d="M195.434 0.0925598H14.6252V117.57H195.434V0.0925598Z" fill="#E6E6E6"/>
<path d="M188.157 6.18854H21.1106V100.285H188.157V6.18854Z" fill="#68E1FD"/>
<path d="M188.162 6.18854H21.1106V18.5866H188.162V6.18854Z" fill="#24285B"/>
<path d="M28.2187 14.6112C29.7263 14.6112 30.9484 13.389 30.9484 11.8815C30.9484 10.3739 29.7263 9.15179 28.2187 9.15179C26.7111 9.15179 25.489 10.3739 25.489 11.8815C25.489 13.389 26.7111 14.6112 28.2187 14.6112Z" fill="white"/>
<path d="M36.3391 14.6112C37.8466 14.6112 39.0687 13.389 39.0687 11.8815C39.0687 10.3739 37.8466 9.15179 36.3391 9.15179C34.8315 9.15179 33.6094 10.3739 33.6094 11.8815C33.6094 13.389 34.8315 14.6112 36.3391 14.6112Z" fill="#68E1FD"/>
<path d="M43.9968 14.6112C45.5043 14.6112 46.7264 13.389 46.7264 11.8815C46.7264 10.3739 45.5043 9.15179 43.9968 9.15179C42.4892 9.15179 41.2671 10.3739 41.2671 11.8815C41.2671 13.389 42.4892 14.6112 43.9968 14.6112Z" fill="#FFD200"/>
<path d="M107.123 111.799C109.012 111.799 110.544 110.267 110.544 108.377C110.544 106.488 109.012 104.956 107.123 104.956C105.233 104.956 103.702 106.488 103.702 108.377C103.702 110.267 105.233 111.799 107.123 111.799Z" fill="#A5A5A5"/>
<path d="M49.6944 18.5866H21.1106V100.285H49.6944V18.5866Z" fill="#FFD200"/>
<path d="M188.162 18.5866H159.569V100.285H188.162V18.5866Z" fill="#FFD200"/>
<path opacity="0.1" d="M103.038 59.944L134.882 41.4362L134.791 74.2519L102.946 92.7551L103.038 59.944Z" fill="#000001"/>
<path opacity="0.44" d="M74.4812 43.456L106.326 24.9482L134.882 41.4362L103.038 59.944L74.4812 43.456Z" fill="white"/>
<path opacity="0.2" d="M103.038 59.944L102.946 92.7551L74.3896 76.2671L74.4812 43.456L103.038 59.944Z" fill="#000001"/>
<path opacity="0.44" d="M42.6274 27.5771H28.1179V40.6256H42.6274V27.5771Z" fill="white"/>
<path opacity="0.44" d="M42.6273 93.5291H29.5835V80.4853L42.6273 93.5291Z" fill="white"/>
<path opacity="0.44" d="M39.0183 53.2892H30.6324L26.4417 60.5531L30.6324 67.817H39.0183L43.209 60.5531L39.0183 53.2892Z" fill="white"/>
<path opacity="0.44" d="M182.262 34.1632H165.463V37.1448H182.262V34.1632Z" fill="white"/>
<path opacity="0.1" d="M170.817 41.2759H165.463V42.7644H170.817V41.2759Z" fill="#000001"/>
<path opacity="0.1" d="M182.263 41.2759H173.254V42.7644H182.263V41.2759Z" fill="#000001"/>
<path opacity="0.1" d="M175.287 46.8956H165.463V48.3841H175.287V46.8956Z" fill="#000001"/>
<path opacity="0.1" d="M182.262 46.8956H178.672V48.3841H182.262V46.8956Z" fill="#000001"/>
<path opacity="0.1" d="M168.38 52.4832H165.5V53.9717H168.38V52.4832Z" fill="#000001"/>
<path opacity="0.1" d="M182.294 52.4832H170.002V53.9717H182.294V52.4832Z" fill="#000001"/>
<path opacity="0.1" d="M179.487 58.1074H165.5V59.5959H179.487V58.1074Z" fill="#000001"/>
<path opacity="0.44" d="M182.262 68.0323H165.463V71.0139H182.262V68.0323Z" fill="white"/>
<path opacity="0.1" d="M170.817 75.145H165.463V76.6335H170.817V75.145Z" fill="#000001"/>
<path opacity="0.1" d="M182.263 75.145H173.254V76.6335H182.263V75.145Z" fill="#000001"/>
<path opacity="0.1" d="M175.287 80.7647H165.463V82.2532H175.287V80.7647Z" fill="#000001"/>
<path opacity="0.1" d="M182.262 80.7647H178.672V82.2532H182.262V80.7647Z" fill="#000001"/>
<path opacity="0.1" d="M168.38 86.3569H165.5V87.8454H168.38V86.3569Z" fill="#000001"/>
<path opacity="0.1" d="M182.294 86.3569H170.002V87.8454H182.294V86.3569Z" fill="#000001"/>
<path opacity="0.1" d="M179.487 91.9765H165.5V93.465H179.487V91.9765Z" fill="#000001"/>
<path opacity="0.44" d="M56.5368 30.5862L60.3977 27.0092L59.8573 26.423L55.9185 30.0732V23.533H55.1216V31.3831H63.3793V30.5862H56.5368Z" fill="white"/>
</g>
<defs>
<clipPath id="clip0_701_152">
<rect width="213" height="195" fill="white"/>
</clipPath>
</defs>
</svg>
