<svg width="455" height="204" viewBox="0 0 455 204" fill="none" xmlns="http://www.w3.org/2000/svg">
<g clip-path="url(#clip0_639_190)">
<path d="M6.70001 184.5H448.4C450.9 184.5 452.9 186.5 452.9 189V196.9C452.9 199.4 450.9 201.4 448.4 201.4H6.70001C4.20001 201.4 2.20001 199.4 2.20001 196.9V189C2.20001 186.5 4.20001 184.5 6.70001 184.5Z" fill="white"/>
<path d="M444.5 203.3H10.5C4.80001 203.1 0.300008 198.3 0.500008 192.6C0.700008 187.1 5.10001 182.7 10.5 182.6H444.5C450.2 182.8 454.7 187.6 454.5 193.3C454.4 198.8 450 203.1 444.5 203.3ZM10.5 186.3C6.80001 186.4 4.00001 189.5 4.10001 193.2C4.20001 196.7 7.00001 199.5 10.5 199.6H444.5C448.2 199.5 451 196.4 450.9 192.7C450.8 189.2 448 186.4 444.5 186.3H10.5Z" fill="#093F68"/>
<path d="M289.5 183.5C289.5 174.6 299.3 167.4 311.5 167.4C323.7 167.4 333.5 174.6 333.5 183.5H289.5Z" fill="white"/>
<path d="M333.4 185.4H289.5C288.5 185.4 287.6 184.6 287.6 183.5C287.6 173.6 298.3 165.6 311.4 165.6C324.5 165.6 335.2 173.6 335.2 183.5C335.2 184.6 334.4 185.4 333.4 185.4ZM291.5 181.7H331.4C330.1 174.7 321.7 169.3 311.5 169.3C301.3 169.3 292.8 174.7 291.5 181.7Z" fill="#093F68"/>
<path d="M311.4 174.4C310.4 174.4 309.5 173.6 309.5 172.5V164.4C309.5 163.4 310.3 162.5 311.4 162.5C312.5 162.5 313.3 163.3 313.3 164.4V172.5C313.3 173.6 312.5 174.4 311.4 174.4Z" fill="#093F68"/>
<path d="M87.4 184.5H53.3C50.2 184.5 47.6 181.9 47.6 178.8V132.1H93.1V178.8C93.1 181.9 90.6 184.5 87.4 184.5Z" fill="#68E1FD"/>
<path d="M82.6 186.3H58.2C51.4 186.3 45.8 180.7 45.8 173.9V132.1C45.8 131.1 46.6 130.2 47.6 130.2H93.2C94.2 130.2 95 131 95 132.1V173.9C95 180.8 89.4 186.3 82.6 186.3ZM49.5 134V174C49.5 178.8 53.4 182.7 58.2 182.7H82.6C87.4 182.7 91.3 178.8 91.3 174V134H49.5Z" fill="#093F68"/>
<path d="M42.4 171.5C39.1 171.5 36.1 171.2 33.7 168.9C31.3 166.6 30.2 162.4 30.2 156C30.2 149.6 31.3 145.5 33.7 143.1C36.4 140.4 40.1 140.5 44 140.5H47.6C48.6 140.5 49.4 141.3 49.4 142.4V169.6C49.4 170.6 48.6 171.5 47.6 171.5H45.7H44H42.4ZM42.4 144.2C39.8 144.2 37.7 144.4 36.4 145.7C34.8 147.3 34 150.7 34 155.9C34 161.1 34.8 164.6 36.4 166.2C38 167.8 40.7 167.8 44 167.7H45.8V144.2H44H42.4Z" fill="#093F68"/>
<path d="M365.9 103.5H347.2V184.1H365.9V103.5Z" fill="#70CC40"/>
<path d="M365.9 185.9H347.2C346.2 185.9 345.3 185.1 345.3 184V103.4C345.3 102.4 346.1 101.5 347.2 101.5H365.9C366.9 101.5 367.8 102.3 367.8 103.3V183.9C367.7 185.1 366.9 185.9 365.9 185.9ZM349.1 182.2H364.1V105.3H349.1V182.2Z" fill="#093F68"/>
<path d="M387 114.1H365.9V184.5H387V114.1Z" fill="#F56132"/>
<path d="M387 186.3H365.9C364.9 186.3 364 185.5 364 184.4V114C364 113 364.8 112.1 365.9 112.1H387C388 112.1 388.9 112.9 388.9 114V184.4C388.9 185.5 388 186.3 387 186.3ZM367.8 182.6H385.2V115.9H367.8V182.6Z" fill="#093F68"/>
<path d="M415.3 100.7H388.5V184.5H415.3V100.7Z" fill="#FFBC0E"/>
<path d="M415.2 186.3H388.4C387.4 186.3 386.5 185.5 386.5 184.4V100.6C386.5 99.6 387.3 98.7 388.4 98.7H415.2C416.2 98.7 417.1 99.5 417.1 100.5V184.3C417.1 185.5 416.3 186.3 415.2 186.3ZM390.3 182.6H413.4V102.5H390.3V182.6Z" fill="#093F68"/>
<path d="M439.7 126.9H415.2V184.1H439.7V126.9Z" fill="#725858"/>
<path d="M439.7 185.9H415.2C414.2 185.9 413.3 185.1 413.3 184.1V126.9C413.3 125.9 414.1 125 415.1 125H439.6C440.6 125 441.5 125.8 441.5 126.9V184.1C441.6 185.1 440.7 185.9 439.7 185.9ZM417.1 182.2H437.9V128.7H417.1V182.2Z" fill="#093F68"/>
<path d="M439.7 147.5H415.2C414.2 147.6 413.3 146.8 413.2 145.8C413.1 144.8 413.9 143.9 414.9 143.8C415 143.8 415.1 143.8 415.2 143.8H439.7C440.7 143.9 441.5 144.8 441.4 145.8C441.4 146.7 440.6 147.4 439.7 147.5Z" fill="#093F68"/>
<path d="M415.2 122.2H388.4C387.4 122.2 386.5 121.4 386.5 120.3C386.5 119.2 387.3 118.4 388.4 118.4H415.2C416.2 118.4 417.1 119.2 417.1 120.3C417.1 121.4 416.3 122.2 415.2 122.2Z" fill="#093F68"/>
<path d="M415.2 166.3H388.4C387.4 166.3 386.5 165.5 386.5 164.4C386.5 163.3 387.3 162.5 388.4 162.5H415.2C416.2 162.5 417.1 163.3 417.1 164.4C417.1 165.5 416.3 166.3 415.2 166.3Z" fill="#093F68"/>
<path d="M375.9 134.4C377.999 134.4 379.7 132.699 379.7 130.6C379.7 128.501 377.999 126.8 375.9 126.8C373.801 126.8 372.1 128.501 372.1 130.6C372.1 132.699 373.801 134.4 375.9 134.4Z" fill="#093F68"/>
<path d="M375.9 136.2C372.8 136.2 370.3 133.7 370.3 130.6C370.3 127.5 372.8 125 375.9 125C379 125 381.5 127.5 381.5 130.6C381.5 133.7 379 136.2 375.9 136.2ZM375.9 128.7C374.8 128.7 374 129.6 374 130.6C374 131.6 374.9 132.5 375.9 132.5C376.9 132.5 377.8 131.6 377.8 130.6C377.8 129.6 376.9 128.7 375.9 128.7Z" fill="#093F68"/>
<path d="M365.9 128.7H347.2C346.2 128.7 345.3 127.9 345.3 126.8C345.3 125.7 346.1 124.9 347.2 124.9H365.9C366.9 124.9 367.8 125.7 367.8 126.8C367.8 127.9 366.9 128.7 365.9 128.7Z" fill="#093F68"/>
<path d="M365.9 162.5H347.2C346.2 162.4 345.4 161.5 345.5 160.5C345.6 159.6 346.3 158.8 347.2 158.8H365.9C366.9 158.9 367.7 159.8 367.6 160.8C367.5 161.7 366.8 162.5 365.9 162.5Z" fill="#093F68"/>
<path d="M362.6 169.3H347.2C346.2 169.3 345.3 168.5 345.3 167.4C345.3 166.3 346.1 165.5 347.2 165.5H362.6C363.6 165.5 364.5 166.3 364.5 167.4C364.5 168.5 363.6 169.3 362.6 169.3Z" fill="#093F68"/>
<path d="M375.9 15.2H339.7V51.4H375.9V15.2Z" fill="white"/>
<path d="M375.9 53.3H339.7C338.7 53.3 337.8 52.5 337.8 51.5V15.3C337.8 14.3 338.6 13.4 339.6 13.4H375.8C376.8 13.4 377.7 14.2 377.7 15.2V51.4C377.8 52.5 377 53.3 375.9 53.3ZM341.6 49.6H374.1V17.1H341.6V49.6Z" fill="#DFEAEF"/>
<path d="M357.8 23.6C356.8 23.6 355.9 22.8 355.9 21.8V11.6C355.9 10.6 356.7 9.70001 357.8 9.70001C358.9 9.70001 359.7 10.5 359.7 11.6V21.8C359.7 22.8 358.9 23.6 357.8 23.6Z" fill="#DFEAEF"/>
<path d="M431.1 41.3H398.2V74.2H431.1V41.3Z" fill="white"/>
<path d="M431.1 76.1H398.2C397.2 76.1 396.3 75.3 396.3 74.3V41.4C396.3 40.4 397.1 39.5 398.2 39.5H431.1C432.1 39.5 433 40.3 433 41.3V74.2C432.9 75.3 432.1 76.1 431.1 76.1ZM400 72.4H429.2V43.2H400V72.4Z" fill="#DFEAEF"/>
<path d="M414.6 49.1C413.6 49.1 412.7 48.3 412.7 47.3V38C412.7 37 413.5 36.1 414.6 36.1C415.7 36.1 416.5 36.9 416.5 38V47.3C416.5 48.3 415.7 49.1 414.6 49.1Z" fill="#DFEAEF"/>
<path d="M80.4 21.9H15.7V86.6H80.4V21.9Z" fill="white"/>
<path d="M80.4 88.4H15.7C14.7 88.4 13.9 87.6 13.9 86.5V21.9C13.9 20.9 14.7 20 15.7 20H80.4C81.4 20 82.2 20.8 82.2 21.9V86.5C82.2 87.5 81.4 88.4 80.4 88.4ZM17.6 84.7H78.6V23.8H17.6V84.7Z" fill="#DFEAEF"/>
<path d="M80.4 21.9H15.7V36.7H80.4V21.9Z" fill="white"/>
<path d="M80.4 38.5H15.7C14.7 38.5 13.9 37.7 13.9 36.6V21.8C13.9 20.8 14.7 19.9 15.7 19.9H80.4C81.4 19.9 82.2 20.7 82.2 21.8V36.6C82.2 37.7 81.4 38.5 80.4 38.5ZM17.6 34.8H78.6V23.7H17.6V34.8Z" fill="#DFEAEF"/>
<path d="M31.3 67.6L39.9 59.2C40.2 58.9 40.4 58.7 40.7 58.4C41 58.1 41.2 57.8 41.4 57.5C41.6 57.2 41.8 56.9 42 56.5C42.1 56.2 42.2 55.8 42.2 55.4C42.2 55 42.1 54.6 42 54.2C41.8 53.9 41.6 53.5 41.3 53.3C41 53 40.7 52.9 40.3 52.7C39.9 52.6 39.5 52.5 39.1 52.5C38.3 52.5 37.4 52.8 36.8 53.3C36.2 53.9 35.8 54.7 35.7 55.5L31.7 55.2C31.8 54.3 32 53.3 32.4 52.5C32.8 51.7 33.3 51 34 50.5C34.7 50 35.4 49.6 36.3 49.3C37.2 49 38.1 48.9 39.1 48.9C40.1 48.9 41 49 41.9 49.3C42.7 49.5 43.5 49.9 44.2 50.5C44.9 51 45.4 51.7 45.7 52.5C46.1 53.4 46.3 54.3 46.3 55.3C46.3 56.6 46 57.8 45.3 58.9C44.6 60 43.8 60.9 42.8 61.8L35.9 68.2H46.2V71.6H31.3V67.6Z" fill="#DFEAEF"/>
<path d="M49.9 67.6L58.5 59.2L59.3 58.4C59.6 58.1 59.8 57.8 60 57.5C60.2 57.2 60.4 56.9 60.6 56.5C60.7 56.2 60.8 55.8 60.8 55.4C60.8 55 60.7 54.6 60.5 54.2C60.3 53.9 60.1 53.5 59.8 53.3C59.5 53 59.2 52.9 58.8 52.7C58.4 52.6 58 52.5 57.6 52.5C56.7 52.5 55.9 52.8 55.3 53.3C54.7 53.9 54.3 54.7 54.2 55.5L50.2 55.2C50.3 54.3 50.5 53.3 50.9 52.5C51.3 51.7 51.8 51 52.5 50.5C53.2 50 53.9 49.6 54.8 49.3C55.7 49 56.7 48.9 57.6 48.9C58.6 48.9 59.5 49 60.4 49.3C61.2 49.5 62 49.9 62.7 50.5C63.4 51 63.9 51.7 64.2 52.5C64.6 53.4 64.8 54.3 64.8 55.3C64.8 56.6 64.5 57.8 63.8 58.9C63.1 60 62.3 60.9 61.3 61.8L54.4 68.2H64.7V71.6H49.9V67.6Z" fill="#DFEAEF"/>
<path d="M28.9 27.5C27.9 27.5 27 26.7 27 25.7V16.4C27 15.4 27.8 14.5 28.8 14.5C29.8 14.5 30.7 15.3 30.7 16.4V25.7C30.8 26.7 30 27.5 28.9 27.5Z" fill="#DFEAEF"/>
<path d="M41.7 27.5C40.7 27.5 39.8 26.7 39.8 25.7V16.4C39.8 15.4 40.6 14.5 41.6 14.5C42.6 14.5 43.5 15.3 43.5 16.3V25.6C43.5 26.7 42.7 27.5 41.7 27.5Z" fill="#DFEAEF"/>
<path d="M54.4 27.5C53.4 27.5 52.5 26.7 52.5 25.7V16.4C52.5 15.4 53.3 14.6 54.4 14.6C55.4 14.6 56.2 15.4 56.2 16.4V25.7C56.3 26.7 55.5 27.5 54.4 27.5Z" fill="#DFEAEF"/>
<path d="M67.2 27.5C66.2 27.5 65.3 26.7 65.3 25.7V16.4C65.3 15.4 66.1 14.6 67.2 14.6C68.2 14.6 69 15.4 69 16.4V25.7C69 26.7 68.2 27.5 67.2 27.5Z" fill="#DFEAEF"/>
<path d="M308 12.6V131.8C308 137.5 303.4 142.2 297.6 142.2H125.7C120 142.2 115.3 137.6 115.3 131.8V12.6C115.3 6.90002 119.9 2.20001 125.7 2.20001H297.5C303.3 2.20001 308 6.80002 308 12.6Z" fill="#68E1FD"/>
<path d="M297.6 144H125.7C122.3 144 119.1 142.6 116.8 140.1C114.7 137.8 113.5 134.8 113.5 131.7V12.6C113.5 5.90004 119 0.400024 125.7 0.400024H297.5C304.2 0.400024 309.7 5.90004 309.7 12.6V131.8C309.8 138.5 304.3 144 297.6 144ZM125.7 4.10004C121 4.10004 117.2 7.90004 117.2 12.6V131.8C117.2 134 118 136.1 119.5 137.6C121.1 139.3 123.4 140.3 125.7 140.3H297.5C302.2 140.3 306 136.5 306 131.8V12.6C306 7.90004 302.2 4.10004 297.5 4.10004H125.7Z" fill="#093F68"/>
<path d="M297.5 11.8H125.7V113.6H297.5V11.8Z" fill="white"/>
<path d="M297.6 115.4H125.7C124.7 115.4 123.8 114.6 123.8 113.5V11.8C123.8 10.8 124.6 9.90002 125.6 9.90002H297.4C298.4 9.90002 299.3 10.7 299.3 11.7V113.5C299.4 114.6 298.6 115.4 297.6 115.4ZM127.6 111.7H295.7V13.6H127.6V111.7Z" fill="#093F68"/>
<path d="M248.3 184.5H175L182.8 142.2H240.5L248.3 184.5Z" fill="#68E1FD"/>
<path d="M248.3 186.3H175C174 186.3 173.1 185.5 173.2 184.4C173.2 184.3 173.2 184.2 173.2 184.1L181 141.8C181.2 140.9 181.9 140.3 182.8 140.3H240.6C241.5 140.3 242.3 140.9 242.4 141.8L250.2 184.1C250.4 185.1 249.7 186.1 248.7 186.3C248.5 186.3 248.4 186.3 248.3 186.3ZM177.2 182.6H246L239 144H184.3L177.2 182.6Z" fill="#093F68"/>
<path d="M210.3 105H149.7C148.7 105 147.8 104.2 147.8 103.2V56.2C147.8 55.2 148.6 54.3 149.6 54.3H210.2C211.2 54.3 212.1 55.1001 212.1 56.1001V103.1C212.2 104.2 211.3 105 210.3 105ZM151.6 101.3H208.5V58H151.6V101.3Z" fill="#DFEAEF"/>
<path d="M149.7 95.4C148.7 95.4 147.9 94.5 147.9 93.5C147.9 92.9 148.2 92.3 148.7 92L171.4 77C172.2 76.5 173.2 76.6 173.8 77.4L180.7 85.8L197.7 69.4C198.4 68.7 199.6 68.7 200.3 69.5C201 70.2 201 71.4 200.3 72.1L181.8 89.9C181.4 90.3 180.9 90.5 180.4 90.4C179.9 90.4 179.4 90.1 179.1 89.7L172 81L150.7 95.1C150.4 95.3 150.1 95.4 149.7 95.4Z" fill="#DFEAEF"/>
<path d="M200.6 81H200.5C199.5 80.9 198.7 80.1001 198.8 79.1001C198.8 79.1001 198.8 79.1 198.8 79L199.4 70H190.2C189.2 70 188.4 69.2001 188.4 68.1001C188.4 67.1001 189.2 66.3 190.2 66.3H201.3C202.3 66.3 203.2 67.1 203.2 68.2V68.3L202.5 79.3C202.4 80.3 201.6 81 200.6 81Z" fill="#DFEAEF"/>
<path d="M273.6 63.1H226C225 63.1 224.2 62.3 224.2 61.2C224.2 60.2 225 59.4 226 59.4H273.6C274.6 59.4 275.5 60.2 275.5 61.2C275.4 62.3 274.6 63.1 273.6 63.1Z" fill="#DFEAEF"/>
<path d="M264 73.7H226C225 73.7 224.2 72.9 224.2 71.8C224.2 70.8 225 70 226 70H264C265 70 265.8 70.8 265.8 71.9C265.8 72.9 265 73.7 264 73.7Z" fill="#DFEAEF"/>
<path d="M273.6 87.2H226C225 87.2 224.1 86.4 224.1 85.4C224.1 84.4 224.9 83.5 225.9 83.5H273.5C274.5 83.5 275.4 84.3 275.4 85.3C275.4 86.4 274.6 87.2 273.6 87.2Z" fill="#DFEAEF"/>
<path d="M252.4 97.8H226C225 97.8 224.2 97 224.2 95.9C224.2 94.9 225 94.1 226 94.1H252.4C253.4 94.1 254.2 94.9 254.2 96C254.3 97 253.5 97.8 252.4 97.8Z" fill="#DFEAEF"/>
<path d="M273.6 49.4H149.7C148.7 49.4 147.8 48.6001 147.8 47.6001V35.2C147.8 34.2 148.6 33.3 149.6 33.3H273.5C274.5 33.3 275.4 34.1001 275.4 35.1001V47.5C275.4 48.6 274.6 49.4 273.6 49.4ZM151.6 45.7H271.8V37H151.6V45.7Z" fill="#DFEAEF"/>
<path d="M211.6 131.4C214.085 131.4 216.1 129.385 216.1 126.9C216.1 124.415 214.085 122.4 211.6 122.4C209.115 122.4 207.1 124.415 207.1 126.9C207.1 129.385 209.115 131.4 211.6 131.4Z" fill="#093F68"/>
<path d="M211.6 133.2C208.1 133.2 205.2 130.4 205.2 126.8C205.2 123.3 208 120.4 211.6 120.4C215.2 120.4 218 123.2 218 126.8C218 130.4 215.2 133.2 211.6 133.2ZM211.6 124.2C210.1 124.2 208.9 125.4 208.9 126.9C208.9 128.4 210.1 129.6 211.6 129.6C213.1 129.6 214.3 128.4 214.3 126.9C214.3 125.4 213.1 124.2 211.6 124.2C211.7 124.2 211.7 124.2 211.6 124.2Z" fill="#093F68"/>
<path d="M160.1 172.2H263.1C264.6 172.2 265.7 173.4 265.7 174.8V181.4C265.7 182.9 264.5 184 263.1 184H160.1C158.6 184 157.5 182.8 157.5 181.4V174.8C157.5 173.4 158.7 172.2 160.1 172.2Z" fill="#68E1FD"/>
<path d="M260.9 185.9H162.4C158.7 185.9 155.7 182.9 155.7 179.2V177.1C155.7 173.4 158.7 170.4 162.4 170.4H260.9C264.6 170.4 267.6 173.4 267.6 177.1V179.2C267.6 182.9 264.6 185.9 260.9 185.9ZM162.4 174.1C160.7 174.1 159.4 175.4 159.4 177.1V179.2C159.4 180.9 160.7 182.2 162.4 182.2H261C262.7 182.2 264 180.9 264 179.2V177.1C264 175.4 262.7 174.1 261 174.1H162.4Z" fill="#093F68"/>
</g>
<defs>
<clipPath id="clip0_639_190">
<rect width="455" height="204" fill="white"/>
</clipPath>
</defs>
</svg>
