<svg width="51" height="49" viewBox="0 0 51 49" fill="none" xmlns="http://www.w3.org/2000/svg">
<g clip-path="url(#clip0_692_211)">
<mask id="mask0_692_211" style="mask-type:luminance" maskUnits="userSpaceOnUse" x="0" y="0" width="51" height="49">
<path d="M50.2619 0H0.833374V48.1928H50.2619V0Z" fill="white"/>
</mask>
<g mask="url(#mask0_692_211)">
<path d="M41.5089 0H9.58633C4.75221 0 0.833374 3.91883 0.833374 8.75295V39.4398C0.833374 44.2739 4.75221 48.1928 9.58633 48.1928H41.5089C46.343 48.1928 50.2619 44.2739 50.2619 39.4398V8.75295C50.2619 3.91883 46.343 0 41.5089 0Z" fill="#001E36"/>
<path d="M11.9634 33.7956V12.6075C11.9634 12.4531 12.0297 12.3754 12.1624 12.3754C12.5157 12.3754 12.8382 12.3702 13.3248 12.3588C13.8108 12.3479 14.3358 12.3369 14.8998 12.3257C15.4635 12.3147 16.0604 12.3037 16.6904 12.2925C17.3203 12.2816 17.9448 12.2761 18.5637 12.2759C20.2434 12.2759 21.6582 12.4859 22.808 12.9059C23.8452 13.2568 24.791 13.8344 25.5768 14.597C26.2428 15.2579 26.7575 16.0555 27.0854 16.9347C27.3956 17.7903 27.5528 18.6938 27.5497 19.6039C27.5497 21.3727 27.1407 22.8317 26.3228 23.9808C25.4995 25.1347 24.3422 26.0084 23.007 26.4843C21.6143 27.0039 20.0668 27.1801 18.3648 27.1801C17.8783 27.1801 17.5357 27.1746 17.3369 27.1635C17.138 27.1526 16.8396 27.1471 16.4417 27.147V33.7625C16.4475 33.803 16.4437 33.8444 16.4308 33.8832C16.4178 33.9221 16.396 33.9574 16.3671 33.9863C16.3381 34.0153 16.3028 34.0371 16.2639 34.05C16.2251 34.063 16.1837 34.0667 16.1432 34.0609H12.1955C12.0406 34.0609 11.9634 33.9728 11.9634 33.7956ZM16.4417 16.3544V23.2651C16.7287 23.2874 16.9939 23.2984 17.2374 23.2982H18.3316C19.1368 23.2956 19.9366 23.1679 20.7025 22.9197C21.3594 22.7246 21.9464 22.3448 22.3936 21.8255C22.8246 21.3173 23.0401 20.6099 23.0402 19.7034C23.0577 19.062 22.8908 18.429 22.5593 17.8797C22.2108 17.3484 21.7072 16.9374 21.1169 16.7026C20.3462 16.403 19.5229 16.262 18.6964 16.2881C18.1658 16.2881 17.6961 16.2936 17.2872 16.3046C16.8779 16.3161 16.5961 16.3326 16.4417 16.3544Z" fill="#31A8FF"/>
<path d="M40.3702 22.0084C39.7471 21.6882 39.0834 21.454 38.3973 21.3121C37.6413 21.1387 36.8684 21.0497 36.0928 21.0468C35.6733 21.0355 35.2543 21.0857 34.8493 21.1961C34.5916 21.2534 34.3625 21.4003 34.2027 21.6105C34.0946 21.7787 34.0371 21.9743 34.037 22.1742C34.043 22.3681 34.113 22.5546 34.2359 22.7047C34.4296 22.9313 34.6663 23.1173 34.9322 23.2518C35.4049 23.5064 35.8921 23.7334 36.3912 23.9316C37.504 24.3041 38.5674 24.8107 39.5578 25.4403C40.2325 25.8661 40.7908 26.4529 41.1825 27.1479C41.512 27.8061 41.6769 28.5343 41.6634 29.2701C41.6832 30.2417 41.4056 31.1962 40.8676 32.0056C40.2916 32.8273 39.4917 33.4661 38.563 33.8459C37.5569 34.2879 36.3134 34.509 34.8328 34.5091C33.8921 34.5186 32.953 34.4297 32.0308 34.2438C31.3043 34.1106 30.5971 33.8879 29.9253 33.5806C29.8528 33.5432 29.7925 33.4859 29.7514 33.4155C29.7102 33.345 29.6901 33.2643 29.6932 33.1828V29.6017C29.6892 29.5666 29.6948 29.5311 29.7094 29.499C29.724 29.4668 29.7471 29.4393 29.7761 29.4193C29.8046 29.4032 29.8374 29.3961 29.8699 29.3991C29.9025 29.4021 29.9334 29.4149 29.9585 29.4359C30.7518 29.9037 31.6132 30.2449 32.5116 30.4472C33.3036 30.6457 34.1158 30.7514 34.9322 30.7622C35.7057 30.7622 36.2749 30.6627 36.6398 30.4638C36.8046 30.3884 36.944 30.2668 37.0412 30.1138C37.1383 29.9608 37.1889 29.7829 37.187 29.6017C37.187 29.3146 37.0212 29.0384 36.6896 28.7727C36.3581 28.5074 35.6839 28.1869 34.6669 27.8111C33.6258 27.4487 32.6386 26.9468 31.7324 26.319C31.0843 25.8682 30.5505 25.272 30.174 24.5782C29.8479 23.9248 29.683 23.2028 29.6932 22.4726C29.6913 21.5953 29.9324 20.7346 30.3895 19.9858C30.9107 19.1612 31.6592 18.5048 32.5448 18.0958C33.5173 17.6097 34.7331 17.3666 36.1923 17.3662C37.0468 17.3594 37.9005 17.4203 38.7454 17.5486C39.3573 17.6262 39.9554 17.788 40.523 18.0294C40.568 18.0423 40.6093 18.0655 40.6439 18.0971C40.6784 18.1288 40.7051 18.1681 40.7219 18.2118C40.7443 18.2928 40.7554 18.3764 40.7551 18.4605V21.8094C40.7574 21.8484 40.7493 21.8873 40.7319 21.9222C40.7145 21.9571 40.6881 21.9868 40.6556 22.0084C40.6113 22.0305 40.5624 22.042 40.5129 22.042C40.4634 22.042 40.4145 22.0305 40.3702 22.0084Z" fill="#31A8FF"/>
</g>
</g>
<defs>
<clipPath id="clip0_692_211">
<rect width="50" height="48.1928" fill="white" transform="translate(0.833374)"/>
</clipPath>
</defs>
</svg>
