<svg width="51" height="49" viewBox="0 0 51 49" fill="none" xmlns="http://www.w3.org/2000/svg">
<mask id="mask0_756_14" style="mask-type:luminance" maskUnits="userSpaceOnUse" x="0" y="0" width="51" height="49">
<path d="M50.3179 0H0.317932V48.75H50.3179V0Z" fill="white"/>
</mask>
<g mask="url(#mask0_756_14)">
<path d="M9.17209 0H41.4638C46.3596 0 50.3179 3.95833 50.3179 8.85416V39.8958C50.3179 44.7917 46.3596 48.75 41.4638 48.75H9.17209C4.27627 48.75 0.317932 44.7917 0.317932 39.8958V8.85416C0.317932 3.95833 4.27627 0 9.17209 0Z" fill="#00005B"/>
<path d="M12.1929 34.1874V12.7499C12.1929 12.6041 12.2554 12.5207 12.4013 12.5207C12.7554 12.5207 13.0888 12.5207 13.5679 12.4999C14.0679 12.4791 14.5888 12.4791 15.1513 12.4583C15.7138 12.4374 16.3179 12.4374 16.9637 12.4166C17.6096 12.3958 18.2346 12.3958 18.8596 12.3958C20.5679 12.3958 21.9846 12.6041 23.1513 13.0416C24.1929 13.3957 25.1512 13.9791 25.9429 14.7499C26.6096 15.4166 27.1304 16.2291 27.4637 17.1249C27.7762 17.9999 27.9429 18.8958 27.9429 19.8332C27.9429 21.6249 27.5263 23.1041 26.6929 24.2708C25.8596 25.4374 24.6929 26.3124 23.3388 26.8124C21.9221 27.3332 20.3596 27.5207 18.6513 27.5207C18.1513 27.5207 17.818 27.5207 17.6096 27.4999C17.4013 27.4791 17.1096 27.4791 16.7138 27.4791V34.1666C16.7346 34.3124 16.6304 34.4374 16.4846 34.4582C16.4637 34.4582 16.4429 34.4582 16.4013 34.4582H12.4429C12.2762 34.4582 12.1929 34.3749 12.1929 34.1874ZM16.7346 16.5416V23.5416C17.0263 23.5624 17.2971 23.5833 17.5471 23.5833H18.6513C19.4638 23.5833 20.2762 23.4582 21.0471 23.2083C21.7137 23.0208 22.2971 22.6249 22.7554 22.1041C23.1929 21.5832 23.4012 20.8749 23.4012 19.9583C23.4221 19.3124 23.2554 18.6666 22.9221 18.1041C22.5679 17.5624 22.0679 17.1458 21.4638 16.9166C20.6929 16.6041 19.8596 16.4791 19.0054 16.4999C18.4638 16.4999 17.9846 16.4999 17.5888 16.5207C17.1721 16.4999 16.8804 16.5207 16.7346 16.5416Z" fill="#9999FF"/>
<path d="M30.8596 17.7499H34.5054C34.7138 17.7499 34.8805 17.8958 34.9429 18.0832C35.0054 18.2499 35.0471 18.4166 35.068 18.6041C35.1096 18.8124 35.1513 19.0416 35.1721 19.2499C35.1929 19.4791 35.2138 19.7291 35.2138 19.9999C35.8388 19.2708 36.5888 18.6666 37.4429 18.2083C38.4012 17.6666 39.5054 17.3957 40.6096 17.3957C40.7554 17.3749 40.8804 17.4791 40.9013 17.6249C40.9013 17.6457 40.9013 17.6666 40.9013 17.7083V21.7707C40.9013 21.9374 40.7971 21.9999 40.5679 21.9999C39.8179 21.9791 39.0471 22.0416 38.3179 22.2083C37.7137 22.3332 37.1304 22.5207 36.5679 22.7707C36.1721 22.9582 35.7971 23.2082 35.5054 23.5416V34.1666C35.5054 34.3749 35.4221 34.4582 35.2346 34.4582H31.1304C30.9638 34.4791 30.8179 34.3749 30.7971 34.2083C30.7971 34.1874 30.7971 34.1457 30.7971 34.1249V22.5833C30.7971 22.0832 30.7971 21.5624 30.7763 21.0208C30.7554 20.4791 30.7554 19.9374 30.7346 19.3958C30.7346 18.9166 30.693 18.4582 30.6513 17.9791C30.6304 17.8749 30.693 17.7707 30.7971 17.7499C30.7971 17.729 30.8388 17.729 30.8596 17.7499Z" fill="#9999FF"/>
</g>
</svg>
