<svg width="51" height="53" viewBox="0 0 51 53" fill="none" xmlns="http://www.w3.org/2000/svg">
<path d="M25.3125 0.208313C22.5655 0.208313 19.8803 1.02288 17.5962 2.54901C15.3122 4.07514 13.5321 6.24429 12.4808 8.78215C11.4296 11.32 11.1546 14.1126 11.6905 16.8068C12.2264 19.501 13.5492 21.9757 15.4916 23.9181C17.434 25.8605 19.9087 27.1833 22.6029 27.7192C25.2971 28.2551 28.0897 27.9801 30.6275 26.9289C33.1654 25.8776 35.3346 24.0975 36.8607 21.8135C38.3868 19.5294 39.2014 16.8442 39.2014 14.0972C39.2014 10.4136 37.7381 6.88095 35.1334 4.27627C32.5288 1.6716 28.9961 0.208313 25.3125 0.208313ZM25.3125 22.4305C23.6643 22.4305 22.0532 21.9418 20.6827 21.0261C19.3123 20.1104 18.2442 18.8089 17.6135 17.2862C16.9828 15.7635 16.8177 14.088 17.1393 12.4714C17.4608 10.8549 18.2545 9.37008 19.4199 8.20465C20.5854 7.03921 22.0702 6.24554 23.6867 5.92399C25.3033 5.60245 26.9788 5.76748 28.5015 6.39821C30.0242 7.02894 31.3257 8.09704 32.2414 9.46745C33.1571 10.8379 33.6458 12.449 33.6458 14.0972C33.6458 16.3073 32.7679 18.427 31.2051 19.9898C29.6423 21.5526 27.5226 22.4305 25.3125 22.4305ZM50.3125 52.9861V50.2083C50.3125 45.0513 48.2639 40.1056 44.6174 36.459C40.9708 32.8125 36.025 30.7639 30.8681 30.7639H19.7569C14.6 30.7639 9.65419 32.8125 6.00765 36.459C2.3611 40.1056 0.3125 45.0513 0.3125 50.2083V52.9861H5.86806V50.2083C5.86806 46.5247 7.33134 42.9921 9.93602 40.3874C12.5407 37.7827 16.0734 36.3194 19.7569 36.3194H30.8681C34.5516 36.3194 38.0843 37.7827 40.689 40.3874C43.2937 42.9921 44.7569 46.5247 44.7569 50.2083V52.9861H50.3125Z" fill="#023047"/>
</svg>
