<svg width="51" height="50" viewBox="0 0 51 50" fill="none" xmlns="http://www.w3.org/2000/svg">
<g clip-path="url(#clip0_756_5)">
<path d="M48.3911 5.24862L38.129 0.307603C37.5494 0.0285703 36.8974 -0.0634248 36.2633 0.0443484C35.6291 0.152122 35.0442 0.454334 34.5893 0.909166L0.994776 31.5394C0.0912604 32.3635 0.0924323 33.7859 0.99712 34.6086L3.74126 37.1031C4.09975 37.4291 4.561 37.6193 5.04505 37.6409C5.52909 37.6624 6.00542 37.5139 6.39146 37.2211L46.8469 6.53046C48.2042 5.50096 50.1536 6.46893 50.1536 8.17245V8.05331C50.1536 7.46731 49.9881 6.89322 49.6764 6.39706C49.3646 5.9009 48.919 5.50283 48.3911 5.24862Z" fill="#0065A9"/>
<path d="M48.3911 44.3L38.129 49.241C37.5494 49.5199 36.8974 49.6119 36.2633 49.5041C35.6292 49.3964 35.0442 49.0942 34.5893 48.6394L0.994776 18.0091C0.0912604 17.1853 0.0924323 15.7626 0.99712 14.9402L3.74126 12.4455C4.09977 12.1195 4.56104 11.9293 5.04508 11.9078C5.52913 11.8863 6.00544 12.0348 6.39146 12.3277L46.8469 43.0181C48.2042 44.0476 50.1536 43.0796 50.1536 41.3759V41.4953C50.1535 42.0813 49.9881 42.6553 49.6763 43.1515C49.3645 43.6476 48.919 44.0457 48.3911 44.3Z" fill="#007ACC"/>
<path d="M38.0968 49.2448C37.5171 49.5237 36.8651 49.6155 36.2309 49.5077C35.5967 49.3998 35.0117 49.0975 34.5568 48.6427C35.7054 49.7911 37.6697 48.9777 37.6697 47.353V2.20167C37.6697 0.577064 35.7054 -0.236412 34.5568 0.912221C35.0117 0.457353 35.5967 0.155063 36.2308 0.0471554C36.865 -0.0607524 37.5171 0.0310533 38.0968 0.309877L48.3572 5.24406C48.8855 5.49812 49.3313 5.89621 49.6433 6.3925C49.9553 6.88879 50.1208 7.46311 50.1208 8.04933V41.5058C50.1208 42.7021 49.4353 43.7927 48.3572 44.311L38.0968 49.2448Z" fill="#1F9CF0"/>
<path d="M35.6358 49.3369C36.0321 49.4914 36.456 49.5627 36.881 49.5464C37.3061 49.53 37.7232 49.4264 38.1065 49.242L48.3604 44.3078C48.8886 44.0536 49.3342 43.6554 49.6461 43.1592C49.958 42.6629 50.1234 42.0886 50.1233 41.5025V8.04626C50.1234 7.46015 49.958 6.88593 49.6461 6.38966C49.3343 5.89339 48.8887 5.49523 48.3606 5.24099L38.1063 0.306616C37.5269 0.0278533 36.8752 -0.0639219 36.2414 0.0439923C35.6076 0.151907 35.0229 0.454174 34.5684 0.90896L14.9384 18.8183L6.38757 12.3277C6.00187 12.0349 5.52583 11.8864 5.04207 11.9079C4.5583 11.9294 4.09733 12.1196 3.73914 12.4455L0.996754 14.9402C0.0924566 15.7627 0.09148 17.1853 0.99441 18.0092L8.40984 24.7744L0.99441 31.5394C0.09148 32.3635 0.0924566 33.7859 0.996754 34.6086L3.73914 37.1031C4.09731 37.429 4.55827 37.6192 5.04203 37.6408C5.5258 37.6623 6.00185 37.5138 6.38757 37.2211L14.9384 30.7303L34.5684 48.6394C34.872 48.9434 35.2355 49.181 35.6358 49.3369ZM37.6796 13.4677L22.7846 24.7744L37.6796 36.0806V13.4677Z" fill="url(#paint0_linear_756_5)" fill-opacity="0.25"/>
</g>
<defs>
<linearGradient id="paint0_linear_756_5" x1="2490.59" y1="0" x2="2490.59" y2="4954.87" gradientUnits="userSpaceOnUse">
<stop stop-color="white"/>
<stop offset="1" stop-color="white" stop-opacity="0"/>
</linearGradient>
<clipPath id="clip0_756_5">
<rect width="50" height="49.6094" fill="white" transform="translate(0.317871)"/>
</clipPath>
</defs>
</svg>
