<svg width="50" height="48" viewBox="0 0 50 48" fill="none" xmlns="http://www.w3.org/2000/svg">
<g clip-path="url(#clip0_692_386)">
<path d="M8.83587 0H40.6307C45.4513 0 49.3487 3.89744 49.3487 8.71795V39.2821C49.3487 44.1026 45.4513 48 40.6307 48H8.83587C4.01536 48 0.11792 44.1026 0.11792 39.2821V8.71795C0.11792 3.89744 4.01536 0 8.83587 0Z" fill="#470137"/>
<path d="M26.0051 12.6153L19.8513 22.7691L26.4154 33.5383C26.4564 33.6204 26.4769 33.7025 26.4564 33.7845C26.4359 33.8666 26.3538 33.805 26.2307 33.8255H21.5333C21.2051 33.8255 20.9795 33.805 20.8359 33.5999C20.4051 32.7383 19.9538 31.8973 19.5231 31.0358C19.0923 30.1948 18.6205 29.3332 18.1282 28.4512C17.6359 27.5691 17.1436 26.6871 16.6513 25.7845H16.6102C16.1795 26.6666 15.7077 27.5486 15.2359 28.4307C14.7641 29.3127 14.2923 30.1948 13.841 31.0563C13.3692 31.9178 12.8974 32.7999 12.4256 33.6409C12.3436 33.846 12.1795 33.8666 11.9538 33.8666H7.441C7.35895 33.8666 7.29741 33.9076 7.29741 33.805C7.2769 33.723 7.29742 33.6409 7.33844 33.5794L13.7179 23.1178L7.50254 12.5948C7.441 12.5127 7.42049 12.4307 7.46152 12.3896C7.50254 12.3281 7.58459 12.3076 7.66665 12.3076H12.3231C12.4256 12.3076 12.5282 12.3281 12.6102 12.3486C12.6923 12.3896 12.7538 12.4512 12.8154 12.5332C13.2051 13.4153 13.6564 14.2973 14.1282 15.1794C14.6205 16.0614 15.0923 16.923 15.6051 17.7845C16.0974 18.646 16.5487 19.5076 16.9795 20.3896H17.0205C17.4513 19.4871 17.9025 18.605 18.3538 17.7435C18.8051 16.8819 19.2769 16.0204 19.7487 15.1589C20.2205 14.2973 20.6718 13.4153 21.1231 12.5742C21.1436 12.4922 21.1846 12.4101 21.2461 12.3691C21.3282 12.3281 21.4102 12.3076 21.5128 12.3281H25.841C25.9436 12.3076 26.0461 12.3691 26.0666 12.4717C26.0872 12.4922 26.0461 12.5742 26.0051 12.6153ZM35.482 34.2563C33.9641 34.2768 32.4461 33.9691 31.0718 33.3332C29.7795 32.7383 28.7128 31.7537 27.9743 30.5435C27.2154 29.2922 26.8461 27.7332 26.8461 25.8666C26.8256 24.3486 27.2154 22.8512 27.9743 21.5383C28.7538 20.205 29.882 19.0973 31.2359 18.3589C32.6718 17.5589 34.3949 17.1691 36.4256 17.1691C36.5282 17.1691 36.6718 17.1691 36.8564 17.1896C37.041 17.2101 37.2461 17.2101 37.4923 17.2307V10.7486C37.4923 10.605 37.5538 10.523 37.6974 10.523H41.8615C41.9641 10.5025 42.0461 10.5845 42.0666 10.6666V30.2358C42.0666 30.605 42.0872 31.0153 42.1077 31.4666C42.1487 31.8973 42.1692 32.3076 42.1897 32.6563C42.1897 32.7999 42.1282 32.923 41.9846 32.9845C40.9179 33.4358 39.7897 33.764 38.641 33.9691C37.5949 34.1537 36.5487 34.2563 35.482 34.2563ZM37.4923 30.1537V21.1281C37.3077 21.0871 37.1231 21.046 36.9384 21.0255C36.7128 21.005 36.4872 20.9845 36.2615 20.9845C35.4615 20.9845 34.6615 21.1486 33.9436 21.5178C33.2461 21.8666 32.6513 22.3794 32.2 23.0358C31.7487 23.6922 31.5231 24.5742 31.5231 25.6409C31.5025 26.3589 31.6256 27.0768 31.8718 27.7537C32.0769 28.3076 32.3846 28.7999 32.7949 29.2101C33.1846 29.5794 33.6564 29.8666 34.1897 30.0307C34.7436 30.2153 35.3179 30.2973 35.8923 30.2973C36.2 30.2973 36.4872 30.2768 36.7538 30.2563C37.0205 30.2768 37.2461 30.2358 37.4923 30.1537Z" fill="#FF61F6"/>
</g>
<defs>
<clipPath id="clip0_692_386">
<rect width="49.2308" height="48" fill="white" transform="translate(0.11792)"/>
</clipPath>
</defs>
</svg>
